<svg width="1920pt" height="1080pt" version="1.1" viewBox="0 0 1920 1080" xmlns="http://www.w3.org/2000/svg">
 <g fill="#363636" fill-opacity=".87059" fill-rule="evenodd" stroke-width=".6404">
  <rect transform="matrix(.68342 .73002 -.68342 .73002 0 0)" x="-733.07" y="635.7" width="1578.7" height="94.453"/>
  <rect transform="matrix(.68342 .73002 -.68342 .73002 0 0)" x="-572.12" y="474.75" width="1578.7" height="94.453"/>
  <rect transform="matrix(.68342 .73002 -.68342 .73002 0 0)" x="-411.16" y="313.79" width="1578.7" height="94.453"/>
  <rect transform="matrix(.68342 .73002 -.68342 .73002 0 0)" x="-250.21" y="152.84" width="1578.7" height="94.453"/>
  <rect transform="matrix(.68342 .73002 -.68342 .73002 0 0)" x="-89.251" y="-8.1171" width="1578.7" height="94.453"/>
  <rect transform="matrix(.68342 .73002 -.68342 .73002 0 0)" x="232.66" y="-330.03" width="1578.7" height="94.453"/>
  <rect transform="matrix(.68342 .73002 -.68342 .73002 0 0)" x="71.704" y="-169.07" width="1578.7" height="94.453"/>
  <rect transform="matrix(.68342 .73002 -.68342 .73002 0 0)" x="393.61" y="-490.98" width="1578.7" height="94.453"/>
  <rect transform="matrix(.68342 .73002 -.68342 .73002 0 0)" x="715.52" y="-812.89" width="1578.7" height="94.453"/>
  <rect transform="matrix(.68342 .73002 -.68342 .73002 0 0)" x="554.57" y="-651.94" width="1578.7" height="94.453"/>
  <rect transform="matrix(.68342 .73002 -.68342 .73002 0 0)" x="876.48" y="-973.85" width="1578.7" height="94.453"/>
  <rect transform="matrix(.68342 .73002 -.68342 .73002 0 0)" x="1037.4" y="-1134.8" width="1578.7" height="94.453"/>
  <rect transform="matrix(.68342 .73002 -.68342 .73002 0 0)" x="1198.4" y="-1295.8" width="1578.7" height="94.453"/>
  <rect transform="matrix(.68342 .73002 -.68342 .73002 0 0)" x="1359.3" y="-1456.7" width="1578.7" height="94.453"/>
 </g>
</svg>
