<?xml version="1.0" encoding="UTF-8" standalone="no"?>
<!-- Generator: Adobe Illustrator 23.0.0, SVG Export Plug-In . SVG Version: 6.00 Build 0)  -->

<svg version="1.1" id="Audio_speaker" x="0px" y="0px" viewBox="0 0 99.999996 99.999996" xml:space="preserve"
   sodipodi:docname="player_is.svg" width="100pt" height="100pt" inkscape:version="1.1.1 (c3084ef, 2021-09-22)"
   xmlns:inkscape="http://www.inkscape.org/namespaces/inkscape"
   xmlns:sodipodi="http://sodipodi.sourceforge.net/DTD/sodipodi-0.dtd" xmlns="http://www.w3.org/2000/svg"
   xmlns:svg="http://www.w3.org/2000/svg">
   <defs id="defs903" />
   <sodipodi:namedview id="namedview901" pagecolor="#505050" bordercolor="#ffffff" borderopacity="1"
      inkscape:pageshadow="0" inkscape:pageopacity="0" inkscape:pagecheckerboard="1" showgrid="false" units="pt"
      inkscape:zoom="4.5092113" inkscape:cx="48.012831" inkscape:cy="55.442068" inkscape:window-width="1920"
      inkscape:window-height="942" inkscape:window-x="1440" inkscape:window-y="25" inkscape:window-maximized="1"
      inkscape:current-layer="layer2" inkscape:document-units="pt" />
   <style type="text/css" id="style824">
      .st0 {
         fill: #2A2A2A;
      }

      .st1 {
         fill: url(#SVGID_1_);
      }

      .st2 {
         fill: url(#SVGID_2_);
      }

      .st3 {
         fill: url(#SVGID_3_);
      }

      .st4 {
         fill: url(#SVGID_4_);
      }

      .st5 {
         fill: url(#SVGID_5_);
      }

      .st6 {
         fill: url(#SVGID_6_);
      }

      .st7 {
         fill: url(#SVGID_7_);
      }

      .st8 {
         fill: url(#SVGID_8_);
      }
   </style>

   <linearGradient id="SVGID_1_" gradientUnits="userSpaceOnUse" x1="13.815" y1="51.000599" x2="86.182404" y2="51.000599"
      gradientTransform="rotate(90,50.49965,50.50095)">
      <stop offset="0" style="stop-color:#858181" id="stop828" />
      <stop offset="0.2781" style="stop-color:#2A2A2A" id="stop830" />
      <stop offset="1" style="stop-color:#2A2A2A" id="stop832" />
   </linearGradient>

   <linearGradient id="SVGID_2_" gradientUnits="userSpaceOnUse" x1="18.838699" y1="51.000599" x2="81.158699"
      y2="51.000599" gradientTransform="rotate(-90,49.49905,50.49965)">
      <stop offset="0" style="stop-color:#858181" id="stop837" />
      <stop offset="0.2781" style="stop-color:#2A2A2A" id="stop839" />
      <stop offset="1" style="stop-color:#2A2A2A" id="stop841" />
   </linearGradient>



   <radialGradient id="SVGID_3_" cx="49.8587" cy="96.239799" r="47.061901"
      gradientTransform="matrix(1,0,0,-1,0,100.4094)" gradientUnits="userSpaceOnUse">
      <stop offset="0" style="stop-color:#FFFFFF" id="stop850" />
      <stop offset="0.3438" style="stop-color:#A7A7A7" id="stop852" />
      <stop offset="0.807" style="stop-color:#2A2A2A" id="stop854" />
   </radialGradient>

   <linearGradient id="SVGID_4_" gradientUnits="userSpaceOnUse" x1="-879.51617" y1="1175.6417" x2="-879.51617"
      y2="1136.0554" gradientTransform="matrix(-0.9817,-0.1906,-0.1906,0.9817,-596.8809,-1232.9004)">
      <stop offset="0" style="stop-color:#939393" id="stop859" />
      <stop offset="0.8694" style="stop-color:#2A2A2A" id="stop861" />
   </linearGradient>

   <radialGradient id="SVGID_5_" cx="49.375" cy="81.850403" r="28.633699"
      gradientTransform="matrix(1,0,0,-1,0,100.4094)" gradientUnits="userSpaceOnUse">
      <stop offset="0" style="stop-color:#FFFFFF" id="stop866" />
      <stop offset="0.3662" style="stop-color:#A7A7A7" id="stop868" />
      <stop offset="0.8595" style="stop-color:#2A2A2A" id="stop870" />
   </radialGradient>

   <radialGradient id="SVGID_6_" cx="41.2005" cy="74.651001" r="26.4492" gradientTransform="matrix(1,0,0,-1,0,100.4094)"
      gradientUnits="userSpaceOnUse">
      <stop offset="0" style="stop-color:#FFFFFF" id="stop875" />
      <stop offset="0.3203" style="stop-color:#A7A7A7" id="stop877" />
      <stop offset="0.7517" style="stop-color:#2A2A2A" id="stop879" />
   </radialGradient>

   <radialGradient id="SVGID_7_" cx="45.994099" cy="33.429298" r="22.591499"
      gradientTransform="matrix(0.995,0,0,-1,-2.1982,100.4094)" gradientUnits="userSpaceOnUse">
      <stop offset="0.2406" style="stop-color:#FFFFFF" id="stop884" />
      <stop offset="0.5085" style="stop-color:#A7A7A7" id="stop886" />
      <stop offset="0.8694" style="stop-color:#2A2A2A" id="stop888" />
   </radialGradient>

   <radialGradient id="SVGID_8_" cx="-875.45172" cy="1176.8612" r="25.9375"
      gradientTransform="matrix(-0.9817,-0.1906,-0.1906,0.9817,-596.8809,-1232.9004)" gradientUnits="userSpaceOnUse">
      <stop offset="0" style="stop-color:#939393" id="stop893" />
      <stop offset="0.8694" style="stop-color:#2A2A2A" id="stop895" />
   </radialGradient>

   <g inkscape:groupmode="layer" id="layer1" inkscape:label="speaker" style="display:inline">
      <circle class="st0" cx="50" cy="50" r="45.099998" id="circle826" />
      <circle class="st1" cx="50" cy="50" r="36.200001" id="circle835" />
      <circle class="st2" cx="50" cy="50" r="31.200001" id="circle844" />
      <circle class="st0" cx="50" cy="50" r="25.6" id="circle846" />
      <path class="st3"
         d="m 50,11.2 c 21.5,0 38.9,17.3 39.1,38.7 0,-0.1 0,-0.2 0,-0.3 C 89.1,28 71.6,10.5 50,10.5 c -21.6,0 -39.1,17.5 -39.1,39 0,0.1 0,0.2 0,0.3 C 11.1,28.5 28.5,11.2 50,11.2 Z"
         id="path857" />
      <path class="st4"
         d="M 42.6,88.1 C 21.6,84 7.8,63.8 11.7,42.8 c 0,0.1 -0.1,0.2 -0.1,0.3 -4.1,21.1 9.7,41.6 30.8,45.7 21.1,4.1 41.6,-9.7 45.7,-30.8 0,-0.1 0,-0.2 0.1,-0.3 -4.3,20.9 -24.6,34.5 -45.6,30.4 z"
         id="path864" />
      <path class="st5"
         d="m 50,14.2 c 19.9,0 36.1,16.1 36.2,36 0,-0.1 0,-0.1 0,-0.2 C 86.2,30 70,13.8 50,13.8 30,13.8 13.8,30 13.8,50 c 0,0.1 0,0.1 0,0.2 0.1,-19.9 16.3,-36 36.2,-36 z"
         id="path873" />
      <path class="st6"
         d="m 50,16.5 c 18.4,0 33.3,14.9 33.4,33.3 0,0 0,-0.1 0,-0.2 0,-18.5 -15,-33.4 -33.4,-33.4 -18.4,0 -33.4,15 -33.4,33.4 0,0 0,0.1 0,0.2 0.1,-18.4 15,-33.3 33.4,-33.3 z"
         id="path882" />
      <path class="st7"
         d="m 50,78.2 c -15.6,0 -28.3,-12.7 -28.4,-28.4 0,0.1 0,0.1 0,0.2 0,15.8 12.7,28.5 28.4,28.5 15.7,0 28.4,-12.8 28.4,-28.5 0,-0.1 0,-0.1 0,-0.2 C 78.3,65.5 65.6,78.2 50,78.2 Z"
         id="path891" />
      <path class="st8"
         d="M 43.6,81.3 C 25.9,77.9 14.4,60.8 17.6,43.2 c 0,0.1 0,0.2 -0.1,0.3 -3.4,17.8 8.1,35 25.9,38.4 17.8,3.4 35,-8.2 38.4,-25.9 0,-0.1 0,-0.2 0.1,-0.3 -3.6,17.6 -20.7,29 -38.3,25.6 z"
         id="path898" />
   </g>
   <g inkscape:groupmode="layer" id="layer2" inkscape:label="listenNow" style="display:inline">
      <g class="lnst0" id="g844" transform="matrix(0.3111169,0,0,0.3111169,33.831033,16.510935)" style="display:inline">
         <path class="lnst1"
            d="m 24.8,56.2 c 0.2,-0.1 0.4,-0.1 0.5,0 0.2,0.1 0.3,0.2 0.3,0.4 0,0.2 0,0.3 -0.2,0.4 -0.5,0.4 -1.1,0.7 -1.6,1 -0.6,0.3 -1.2,0.6 -1.9,0.9 -0.7,0.3 -1.4,0.5 -2,0.6 -0.6,0.1 -1.3,0.2 -2,0.2 -0.7,0 -1.3,-0.2 -1.9,-0.4 -0.5,-0.2 -0.9,-0.5 -1.3,-0.9 -0.4,-0.4 -0.6,-0.8 -0.8,-1.3 -0.2,-0.5 -0.3,-1 -0.4,-1.5 -0.1,-0.6 -0.1,-1.1 -0.1,-1.6 0,-0.5 0.1,-1 0.1,-1.6 0.2,-1.8 0.5,-3.5 0.9,-5.3 0.4,-1.8 0.8,-3.7 1.4,-5.8 0.6,-2.1 1.1,-3.7 1.5,-5 0.4,-1.3 1,-3.1 1.7,-5.5 0.1,-0.2 0.2,-0.3 0.4,-0.3 0.2,0 0.3,0 0.5,0.2 0.1,0.1 0.2,0.3 0.1,0.5 -2.2,6.9 -3.7,12.6 -4.7,17.3 0,0.2 -0.1,0.6 -0.3,1.3 -0.1,0.6 -0.2,1.1 -0.3,1.4 -0.1,0.3 -0.1,0.8 -0.2,1.4 -0.1,0.6 -0.1,1.1 -0.1,1.5 0,0.4 0,0.8 0.1,1.3 0.1,0.5 0.2,0.9 0.3,1.3 0.3,0.6 0.6,1.1 1.1,1.5 0.5,0.3 1,0.5 1.7,0.5 0.6,0 1.2,0 1.9,-0.1 0.7,-0.1 1.3,-0.3 2,-0.6 0.7,-0.3 1.3,-0.6 1.8,-0.8 0.5,-0.4 1,-0.7 1.5,-1 z"
            id="path826" />
         <path class="lnst1"
            d="m 29,46.4 c 0.1,0 0.3,0 0.4,0.1 0.1,0.1 0.2,0.2 0.2,0.3 0,0.1 0,0.3 -0.1,0.4 -0.2,0.3 -0.5,0.7 -0.8,1 -0.3,0.4 -0.7,0.8 -1.3,1.4 -0.5,0.6 -1.1,1 -1.7,1.4 -0.6,0.3 -1.1,0.5 -1.6,0.5 -0.3,0 -0.6,-0.1 -0.9,-0.2 -0.3,-0.2 -0.5,-0.6 -0.6,-1.1 -0.1,-0.5 0,-1.2 0.1,-1.9 0.1,-0.7 0.3,-1.4 0.5,-1.9 0.2,-0.6 0.3,-1.1 0.6,-1.7 0,-0.1 0.1,-0.2 0.3,-0.3 0.1,-0.1 0.3,-0.1 0.4,0 0.1,0 0.2,0.1 0.2,0.2 0.1,0.1 0.1,0.2 0.1,0.2 0,0.1 0,0.2 0,0.3 -0.3,0.9 -0.6,1.7 -0.8,2.5 -0.2,0.8 -0.3,1.5 -0.3,1.9 0,0.5 0,0.8 0.1,0.9 0.5,0.3 1.2,0 2.2,-0.9 1,-0.8 1.9,-1.8 2.7,-2.9 0,-0.1 0.1,-0.2 0.3,-0.2 z m -4.9,-3.7 c -0.3,0 -0.4,-0.1 -0.5,-0.4 -0.1,-0.1 -0.1,-0.3 0,-0.4 0.1,-0.1 0.2,-0.2 0.3,-0.3 0,0 0.1,0 0.1,0 0.1,0 0.1,-0.1 0.2,-0.1 0.1,0 0.1,-0.1 0.2,-0.1 0.1,0 0.2,-0.1 0.3,-0.1 l 0.4,1 c -0.5,0.2 -0.8,0.3 -0.9,0.3 0,0.1 0,0.1 -0.1,0.1 z"
            id="path828" />
         <path class="lnst1"
            d="m 46.7,39.1 c 0.1,0 0.3,0 0.4,0 0.1,0.1 0.2,0.2 0.3,0.3 0.1,0.1 0,0.2 0,0.4 -0.2,0.6 -1,1 -2.2,1.4 -1.2,0.4 -2.8,0.5 -4.7,0.3 -0.7,-0.1 -1.3,-0.1 -1.9,-0.2 -0.7,1.4 -1.5,2.8 -2.2,4 -0.1,0.3 -0.2,0.6 -0.4,0.9 0,0.1 0,0.2 0,0.2 -0.2,1.2 -0.3,2.5 -0.2,3.8 0.1,1.3 0.3,2.1 0.6,2.4 0.1,0.1 0.3,0.2 0.4,0.2 0.3,0 0.6,-0.2 1,-0.6 0.4,-0.3 0.6,-0.7 0.8,-1 0.1,-0.1 0.2,-0.2 0.3,-0.2 0.1,0 0.3,0 0.4,0.1 0.1,0.1 0.2,0.2 0.2,0.3 0,0.1 0,0.3 -0.1,0.4 -0.1,0.1 -0.1,0.2 -0.2,0.3 -0.1,0.1 -0.2,0.2 -0.4,0.5 -0.2,0.2 -0.4,0.4 -0.6,0.6 -0.2,0.2 -0.4,0.3 -0.7,0.5 -0.3,0.1 -0.5,0.2 -0.8,0.3 -0.1,0 -0.1,0 -0.2,0 -0.4,0 -0.7,-0.1 -1,-0.4 C 35,53.2 34.7,52.5 34.6,51.4 34.5,50.3 34.4,49.2 34.5,48 33.9,48.6 33,49.2 32,49.9 c 0.4,1 0.3,1.9 -0.2,2.7 -0.5,0.8 -1.3,1.4 -2.1,1.9 -0.9,0.5 -1.7,0.7 -2.3,0.7 -0.2,0 -0.4,0 -0.5,-0.1 -0.6,-0.1 -0.9,-0.5 -1,-1.1 0,-0.3 0,-0.6 0.2,-0.9 0.1,-0.3 0.3,-0.6 0.5,-0.8 0.2,-0.2 0.5,-0.5 0.9,-0.8 0.4,-0.3 0.8,-0.5 1.1,-0.7 0.3,-0.2 0.7,-0.4 1.3,-0.8 0.5,-0.3 0.8,-0.4 0.9,-0.5 -0.2,-0.4 -0.6,-0.9 -1.1,-1.5 -0.3,-0.3 -0.4,-0.6 -0.6,-0.7 -0.1,-0.2 -0.2,-0.4 -0.4,-0.6 -0.1,-0.2 -0.2,-0.4 -0.2,-0.6 0,-0.4 0,-0.8 0.2,-1.2 0.1,-0.4 0.4,-0.7 0.6,-1 0.3,-0.3 0.5,-0.5 0.8,-0.7 0.3,-0.2 0.6,-0.4 0.9,-0.5 0.3,-0.1 0.5,-0.2 0.7,-0.3 0.2,-0.1 0.2,-0.1 0.3,-0.1 0.1,0 0.3,0 0.4,0 0.1,0.1 0.2,0.2 0.2,0.3 0,0.1 0,0.3 -0.1,0.4 -0.1,0.1 -0.2,0.2 -0.3,0.3 -0.1,0 -0.2,0 -0.3,0.1 -0.1,0 -0.4,0.1 -0.7,0.3 -0.3,0.1 -0.6,0.3 -0.8,0.5 -0.2,0.2 -0.5,0.4 -0.6,0.8 -0.2,0.3 -0.3,0.6 -0.2,1 0,0.2 0.3,0.6 0.9,1.4 0.5,0.7 0.9,1.2 1.1,1.6 1.6,-1 2.7,-1.9 3.3,-2.9 0.3,-1.5 0.7,-3.1 1.1,-4.6 -0.8,0 -1.6,0 -2.3,-0.1 -0.7,0 -1.3,0 -1.7,0 -0.5,0 -0.9,0.1 -1.2,0.1 -0.3,0 -0.6,0.1 -0.8,0.1 -0.2,0.1 -0.4,0.1 -0.5,0.2 -0.1,0 -0.2,0.1 -0.3,0.1 -0.1,0.1 -0.2,0.2 -0.4,0.2 -0.1,0 -0.3,-0.1 -0.4,-0.2 -0.1,-0.1 -0.1,-0.2 -0.1,-0.4 0,-0.1 0.1,-0.3 0.2,-0.4 0.8,-0.8 3.4,-1 7.8,-0.8 1.3,-4.5 2.4,-7.1 3.5,-7.8 0.3,-0.2 0.6,-0.3 0.9,-0.2 0.3,0.1 0.6,0.3 0.7,0.6 0.4,0.9 -0.3,3.4 -2.3,7.2 0,0.1 -0.1,0.2 -0.2,0.4 0.5,0 1,0.1 1.5,0.1 0.8,0.1 1.5,0.1 2.1,0 0.6,0 1.1,-0.1 1.6,-0.2 0.5,-0.1 0.8,-0.2 1.2,-0.3 0.3,-0.1 0.5,-0.3 0.7,-0.4 0.2,-0.1 0.3,-0.2 0.3,-0.3 0.2,-0.1 0.3,-0.2 0.4,-0.3 z M 31.1,51.7 c 0.3,-0.4 0.3,-0.9 0.2,-1.5 -0.3,0.2 -0.6,0.3 -0.8,0.5 -0.4,0.2 -0.7,0.4 -0.9,0.5 -0.2,0.1 -0.5,0.3 -0.8,0.5 -0.3,0.2 -0.6,0.4 -0.8,0.5 -0.2,0.1 -0.3,0.3 -0.5,0.5 -0.2,0.2 -0.3,0.3 -0.4,0.5 -0.1,0.2 -0.1,0.4 -0.1,0.5 0,0.1 0.1,0.2 0.2,0.2 0.4,0.1 1.1,0 1.9,-0.5 0.8,-0.3 1.5,-0.9 2,-1.7 z m 5.7,-9.3 c 0.2,-0.3 0.4,-0.7 0.6,-1.1 -0.1,0 -0.2,0 -0.3,0 -0.1,0.4 -0.2,0.8 -0.3,1.1 z m 3.6,-9.1 c -0.8,0.5 -1.8,2.8 -3,7 0.1,0 0.3,0 0.5,0 0.6,-1.2 1.1,-2.3 1.6,-3.3 0.4,-1 0.7,-1.8 0.9,-2.5 0.2,-0.7 0.2,-1.1 0,-1.2 0.1,-0.1 0.1,-0.1 0,0 z"
            id="path830" />
         <path class="lnst1"
            d="m 46.5,47.3 c 0.1,0 0.3,0 0.4,0.1 0.1,0.1 0.2,0.2 0.2,0.4 0,0.1 0,0.3 -0.1,0.4 -0.2,0.2 -0.5,0.5 -0.8,0.8 -0.3,0.3 -0.8,0.7 -1.4,1.2 -0.6,0.5 -1.2,0.9 -1.9,1.2 -0.7,0.3 -1.3,0.5 -1.8,0.5 -0.5,0 -1,-0.2 -1.4,-0.5 -0.4,-0.4 -0.6,-0.9 -0.7,-1.5 -0.1,-0.6 -0.1,-1.2 0.1,-1.8 0.2,-0.6 0.4,-1.2 0.7,-1.9 0.4,-0.8 0.9,-1.4 1.5,-1.9 0.6,-0.5 1.2,-0.7 1.8,-0.5 0.6,0.2 0.9,0.5 1,0.9 0,0.3 -0.1,0.7 -0.4,1.1 -0.3,0.4 -0.7,0.8 -1.2,1.2 -0.5,0.4 -0.9,0.8 -1.4,1 -0.4,0.3 -0.8,0.6 -1.3,0.9 -0.1,0.8 0.1,1.3 0.4,1.6 0.2,0.2 0.5,0.3 0.9,0.2 0.4,-0.1 0.8,-0.2 1.2,-0.4 0.4,-0.2 0.9,-0.5 1.4,-0.8 0.5,-0.3 0.9,-0.7 1.3,-1 0.4,-0.3 0.7,-0.7 1,-1 0.3,-0.1 0.4,-0.2 0.5,-0.2 z m -5.8,-0.6 c -0.1,0.2 -0.3,0.5 -0.4,0.7 0.8,-0.5 1.4,-1.1 2,-1.5 0.6,-0.4 0.8,-0.8 0.8,-1 0,0 -0.1,0 -0.2,-0.1 0,0 -0.1,0 -0.1,0 -0.3,0 -0.6,0.2 -1,0.5 -0.5,0.3 -0.8,0.8 -1.1,1.4 z"
            id="path832" />
         <path class="lnst1"
            d="m 53.8,50.3 c 0.1,0 0.3,0 0.4,0.2 0.1,0.1 0.1,0.2 0.1,0.4 0,0.2 -0.1,0.3 -0.2,0.4 -0.5,0.5 -1,0.7 -1.5,0.7 -0.3,0 -0.5,-0.1 -0.7,-0.2 -0.2,-0.1 -0.4,-0.4 -0.5,-0.7 -0.1,-0.3 -0.2,-0.6 -0.2,-0.9 0,-0.3 -0.1,-0.7 -0.1,-1.2 -0.1,-1 -0.2,-1.5 -0.3,-1.7 -0.4,0.1 -1.2,1 -2.7,2.8 -0.5,0.6 -0.9,1.1 -1.2,1.4 -0.3,0.3 -0.5,0.4 -0.6,0.5 -0.2,0.1 -0.3,0.1 -0.5,-0.1 -0.2,-0.1 -0.2,-0.3 -0.2,-0.5 0.1,-0.9 0.6,-3.3 1.6,-7.1 0,-0.1 0.1,-0.2 0.2,-0.3 0.1,-0.1 0.2,-0.1 0.4,-0.1 0.1,0 0.2,0.1 0.3,0.2 0.1,0.1 0.1,0.3 0.1,0.4 -0.5,1.8 -0.9,3.6 -1.3,5.4 0.1,-0.1 0.2,-0.3 0.4,-0.5 1,-1.2 1.7,-2 2.3,-2.5 0.5,-0.5 1,-0.7 1.4,-0.6 0.2,0 0.4,0.1 0.5,0.2 0.1,0.1 0.2,0.3 0.3,0.6 0.1,0.3 0.1,0.6 0.2,0.8 0,0.2 0.1,0.6 0.1,1 0.1,1.3 0.3,2 0.4,2.1 0.1,0.1 0.2,0 0.4,-0.1 0.2,-0.1 0.4,-0.2 0.5,-0.3 0.2,-0.2 0.3,-0.3 0.4,-0.3 z"
            id="path834" />
         <path class="lnst1"
            d="m 66.9,50.3 c 0.1,0 0.3,0 0.4,0.2 0.1,0.1 0.1,0.2 0.1,0.4 0,0.2 -0.1,0.3 -0.2,0.4 -0.5,0.5 -1,0.7 -1.5,0.7 -0.3,0 -0.5,-0.1 -0.7,-0.2 -0.2,-0.1 -0.4,-0.4 -0.5,-0.7 -0.1,-0.3 -0.2,-0.6 -0.2,-0.9 0,-0.3 -0.1,-0.7 -0.1,-1.2 -0.1,-1 -0.2,-1.5 -0.3,-1.7 -0.4,0.1 -1.2,1 -2.7,2.8 -0.5,0.6 -0.9,1.1 -1.1,1.4 -0.3,0.3 -0.5,0.4 -0.6,0.5 -0.2,0.1 -0.3,0.1 -0.5,-0.1 -0.2,-0.1 -0.2,-0.3 -0.2,-0.5 0.1,-0.9 0.6,-3.3 1.6,-7.1 0,-0.1 0.1,-0.2 0.2,-0.3 0.1,-0.1 0.2,-0.1 0.4,-0.1 0.1,0 0.2,0.1 0.3,0.2 0.1,0.1 0.1,0.3 0.1,0.4 -0.5,1.8 -0.9,3.6 -1.3,5.4 0.1,-0.1 0.2,-0.3 0.4,-0.5 1,-1.2 1.7,-2 2.3,-2.5 0.5,-0.5 1,-0.7 1.4,-0.6 0.2,0 0.4,0.1 0.5,0.2 0.1,0.1 0.2,0.3 0.3,0.6 0.1,0.3 0.1,0.6 0.2,0.8 0,0.2 0.1,0.6 0.1,1 0.1,1.3 0.3,2 0.4,2.1 0.1,0.1 0.2,0 0.4,-0.1 0.2,-0.1 0.4,-0.2 0.5,-0.3 0.1,-0.2 0.2,-0.3 0.3,-0.3 z"
            id="path836" />
         <path class="lnst1"
            d="m 74.1,44.4 c 0.1,0 0.3,0.1 0.3,0.2 0.1,0.1 0.1,0.2 0.1,0.4 0,0.1 -0.1,0.3 -0.2,0.3 -0.9,0.7 -2,0.9 -3.3,0.6 0.1,0.5 0,1.2 -0.1,2.2 -0.1,0.4 -0.3,1 -0.6,1.7 -0.3,0.7 -0.7,1.2 -1.2,1.5 -0.3,0.2 -0.6,0.3 -0.9,0.3 -0.2,0 -0.3,0 -0.5,-0.1 -1,-0.4 -1.4,-1.5 -1.2,-3.3 0,-0.1 0,-0.2 0,-0.2 0,-0.4 0.2,-0.9 0.5,-1.5 0.3,-0.6 0.6,-1 1.1,-1.4 0.5,-0.4 1,-0.6 1.5,-0.6 0.4,0 0.6,0.1 0.9,0.4 1.4,0.5 2.4,0.5 3.2,-0.2 0.1,-0.3 0.2,-0.3 0.4,-0.3 z M 69.9,48 c 0.2,-1.3 0.1,-2.1 0,-2.4 -0.1,0 -0.3,-0.1 -0.4,-0.2 -0.4,0.1 -0.8,0.4 -1.2,1 -0.4,0.6 -0.6,1.1 -0.7,1.6 0,0 0,0.1 0,0.2 -0.1,0.5 -0.1,0.9 0,1.4 0.1,0.5 0.2,0.7 0.5,0.9 0.2,0.1 0.3,0 0.5,-0.1 0.2,-0.1 0.4,-0.4 0.6,-0.7 0.2,-0.3 0.4,-0.7 0.5,-1 0.1,-0.3 0.2,-0.6 0.2,-0.7 z"
            id="path838" />
         <path class="lnst1"
            d="m 83,44.8 c 0.1,0 0.3,0.1 0.4,0.2 0.1,0.1 0.1,0.2 0.1,0.4 -0.1,0.6 -0.5,1.6 -1.4,2.8 -0.8,1.3 -1.6,2.1 -2.3,2.4 -0.5,0.2 -0.9,0.2 -1.3,0 -0.7,-0.5 -1,-1.6 -0.8,-3.3 -1.2,1.6 -2.2,2.7 -2.9,3.4 -0.7,0.7 -1.4,1 -1.8,1 -0.1,0 -0.3,0 -0.4,-0.1 -0.3,-0.2 -0.5,-0.6 -0.5,-1.2 0,-0.6 0.1,-1.2 0.3,-2 0.2,-0.8 0.5,-1.5 0.8,-2.2 0.3,-0.7 0.6,-1.4 0.9,-2.1 0.1,-0.1 0.2,-0.2 0.3,-0.3 0.1,0 0.3,0 0.4,0 0.1,0.1 0.2,0.2 0.3,0.3 0.1,0.1 0,0.3 0,0.4 -0.6,1.4 -1.2,2.7 -1.5,3.9 -0.4,1.2 -0.5,2 -0.3,2.2 0.4,-0.1 1,-0.7 2.1,-1.9 1,-1.2 2.1,-2.6 3.1,-4.2 0.2,-0.2 0.4,-0.3 0.6,-0.2 0.1,0 0.2,0.1 0.3,0.2 0.1,0.1 0.1,0.2 0,0.4 -0.2,0.6 -0.3,1.2 -0.4,1.9 -0.1,0.7 -0.2,1.3 -0.1,1.8 0,0.5 0.1,0.9 0.3,1 0.1,0 0.2,0 0.3,0 0.6,-0.3 1.2,-1 1.9,-2.1 0.7,-1.1 1.1,-1.9 1.2,-2.3 0,-0.1 0.1,-0.3 0.2,-0.4 0,0 0.1,0 0.2,0 z"
            id="path840" />
         <path class="lnst1"
            d="m 85.8,52.2 c 0.1,-0.1 0.2,-0.1 0.4,-0.1 0.1,0 0.3,0.1 0.4,0.2 0.2,0.3 0.2,0.5 -0.1,0.7 l -0.6,0.6 c -0.1,0.1 -0.2,0.1 -0.4,0.1 -0.1,0 -0.3,-0.1 -0.4,-0.2 -0.2,-0.2 -0.2,-0.5 0.1,-0.7 z m 3.8,-21.1 c 0.1,-0.2 0.3,-0.2 0.5,-0.2 0.2,0 0.3,0.1 0.4,0.3 0.1,0.2 0,0.3 -0.1,0.5 -0.2,0.3 -0.4,0.6 -0.6,1.1 -0.2,0.4 -0.3,0.8 -0.4,1 -0.1,0.2 -0.2,0.7 -0.4,1.3 -0.2,0.7 -0.3,1 -0.3,1 -0.4,1.5 -0.8,3.1 -1.1,4.6 -0.5,2.8 -0.8,5.7 -0.8,8.8 0,0.2 -0.1,0.3 -0.3,0.4 -0.2,0.1 -0.3,0 -0.5,-0.1 -0.2,-0.1 -0.3,-0.3 -0.3,-0.5 0.1,-3.5 0.4,-6.8 1.1,-10.1 0.3,-1.4 0.7,-2.9 1.1,-4.2 0,-0.1 0.1,-0.4 0.2,-0.8 0.1,-0.4 0.2,-0.7 0.3,-0.9 0.1,-0.2 0.2,-0.4 0.3,-0.8 0.1,-0.3 0.3,-0.6 0.4,-0.9 0.2,-0.1 0.4,-0.3 0.5,-0.5 z"
            id="path842" />
      </g>
   </g>
   <g inkscape:groupmode="layer" id="layer3" inkscape:label="playButton" style="display:inline">
      <g id="g1262" transform="matrix(0.25,0,0,0.25,37.5,37.5)" style="display:inline">
         <g id="ctrl-play-circle-g">
            <circle id="ctrl-play-circle" cx="50" cy="50" r="48" />
         </g>
         <g id="ctrl-play-triangle-g">
            <polygon id="ctrl-play-triangle" points="42,34 68,50 42,66 " strokeLinejoin="round" strokeOpacity="1"
               strokeWidth="5" />
         </g>
         <g id="ctrl-pause-path-g">
            <path id="ctrl-pause-path-1" fill="none" strokeOpacity="1" strokeDasharray="none" strokeMiterlimit="4"
               strokeLinejoin="miter" strokeLinecap="round" strokeWidth="10" stroke="#000000" d="M 42,30 V 70" />
            <path id="ctrl-pause-path-2" fill="none" strokeOpacity="1" strokeDasharray="none" strokeMiterlimit="4"
               strokeLinejoin="miter" strokeLinecap="round" strokeWidth="10" stroke="#000000" d="M 58,30 V 70" />
         </g>
      </g>
   </g>
   <style type="text/css" id="style824-5">
      .lnst0 {
         enable-background: new;
      }

      .lnst1 {
         fill: #FFFFFF;
      }
   </style>
</svg>