<?xml version="1.0" encoding="UTF-8" standalone="no"?>
<!-- Generator: Adobe Illustrator 23.0.0, SVG Export Plug-In . SVG Version: 6.00 Build 0)  -->

<svg
   version="1.1"
   id="Layer_1"
   x="0px"
   y="0px"
   viewBox="0 0 204 64"
   xml:space="preserve"
   sodipodi:docname="appstore_IS.svg"
   width="204pt"
   height="64pt"
   inkscape:version="1.1.1 (c3084ef, 2021-09-22)"
   xmlns:inkscape="http://www.inkscape.org/namespaces/inkscape"
   xmlns:sodipodi="http://sodipodi.sourceforge.net/DTD/sodipodi-0.dtd"
   xmlns="http://www.w3.org/2000/svg"
   xmlns:svg="http://www.w3.org/2000/svg"><defs
   id="defs967" /><sodipodi:namedview
   id="namedview965"
   pagecolor="#505050"
   bordercolor="#ffffff"
   borderopacity="1"
   inkscape:pageshadow="0"
   inkscape:pageopacity="0"
   inkscape:pagecheckerboard="1"
   showgrid="false"
   inkscape:document-units="pt"
   units="pt"
   inkscape:zoom="2.3770692"
   inkscape:cx="223.17398"
   inkscape:cy="4.2068611"
   inkscape:window-width="1920"
   inkscape:window-height="942"
   inkscape:window-x="1440"
   inkscape:window-y="25"
   inkscape:window-maximized="1"
   inkscape:current-layer="Layer_1" />
<style
   type="text/css"
   id="style960">
	.st0{fill:#FFC82F;}
</style>
<path
   class="st0"
   d="M 194.26947,62.822 H 9.731034 C 5.4618055,62.822 2,59.361022 2,55.090964 V 9.731034 C 2,5.4618055 5.4609764,2 9.731034,2 H 194.26947 c 4.26923,0 7.73104,3.4609764 7.73104,7.731034 v 45.35993 C 201.99968,59.361022 198.5387,62.822 194.26947,62.822 Z M 14.417237,26.851884 c -3.244613,5.62958 -1.18212,14.173839 2.405691,19.354112 1.790588,2.59055 3.60439,4.915002 6.087173,4.915002 0.04641,0 0.09368,-8.3e-4 0.141756,-0.0033 1.167199,-0.04641 2.010268,-0.405371 2.825149,-0.752712 0.915193,-0.390447 1.862711,-0.79333 3.347407,-0.79333 1.412577,0 2.313675,0.390448 3.184927,0.766805 0.85965,0.372209 1.744168,0.756854 3.052292,0.731985 2.796968,-0.05223 4.514608,-2.560707 6.029976,-4.774075 1.581687,-2.310357 2.375017,-4.553568 2.641948,-5.411559 l 0.01067,-0.03399 c 0.0514,-0.152532 -0.02156,-0.318326 -0.167454,-0.385475 0,0 -0.01824,-0.0083 -0.02237,-0.01 -0.492413,-0.201441 -4.813865,-2.118862 -4.85946,-7.343071 -0.04228,-4.24519 3.241297,-6.492543 3.900335,-6.900401 l 0.03067,-0.01989 c 0.07129,-0.0456 0.12104,-0.118546 0.13844,-0.201442 0.01657,-0.08372 -8.29e-4,-0.169939 -0.04892,-0.240403 -2.266423,-3.316732 -5.740662,-3.816606 -7.139145,-3.876292 -0.20227,-0.02072 -0.412003,-0.03067 -0.622562,-0.03067 -1.643032,0 -3.216429,0.620075 -4.481446,1.119118 -0.872913,0.344025 -1.626452,0.641628 -2.146218,0.641628 -0.584432,0 -1.342944,-0.300919 -2.220001,-0.649088 -1.17466,-0.465884 -2.505167,-0.993944 -3.913599,-0.993944 -0.03399,0 -0.06632,8.29e-4 -0.09865,0.0017 -3.276115,0.04808 -6.371513,1.922396 -8.076719,4.889303 z M 35.978913,12.745192 c -1.982912,0.08041 -4.362901,1.301494 -5.784596,2.967736 -1.209477,1.399312 -2.389111,3.734538 -2.078245,6.087173 0.01989,0.147559 0.140097,0.260299 0.287656,0.272734 0.134293,0.01 0.270246,0.01575 0.406199,0.01575 1.938975,0 4.031313,-1.073524 5.460468,-2.80111 1.503763,-1.823751 2.263933,-4.164781 2.034306,-6.26209 -0.01824,-0.164967 -0.163307,-0.287655 -0.325788,-0.280195 z m 22.820892,9.342565 h 3.761067 c 0.98648,0 1.862709,-0.203928 2.627025,-0.610956 0.765147,-0.407027 1.360352,-0.970733 1.785618,-1.690282 0.425264,-0.719553 0.63831,-1.536095 0.63831,-2.450455 0,-0.914361 -0.213046,-1.730902 -0.63831,-2.450456 -0.425266,-0.719549 -1.020471,-1.283254 -1.785618,-1.690282 -0.765144,-0.407028 -1.640545,-0.610955 -2.627025,-0.610955 h -3.761067 z m 0.692197,-0.62422 V 13.20776 h 3.014158 c 0.877885,0 1.652149,0.174087 2.321963,0.523086 0.669813,0.348998 1.185435,0.834778 1.547698,1.459827 0.362263,0.625048 0.542981,1.339625 0.542981,2.145391 0,0.805767 -0.181549,1.520343 -0.542981,2.14539 -0.362263,0.624219 -0.877885,1.111658 -1.547698,1.459829 -0.669814,0.348998 -1.444078,0.523082 -2.321963,0.523082 h -3.014158 z m 13.075444,0.678932 c 0.669814,0 1.274137,-0.154189 1.812972,-0.46174 0.538834,-0.30755 0.961613,-0.735301 1.269161,-1.283254 0.307551,-0.547955 0.461741,-1.165541 0.461741,-1.853594 0,-0.688048 -0.15419,-1.305637 -0.461741,-1.853589 -0.307548,-0.547953 -0.731155,-0.974877 -1.269161,-1.283257 -0.538835,-0.30755 -1.143158,-0.46174 -1.812972,-0.46174 -0.669813,0 -1.274137,0.15419 -1.812972,0.46174 -0.538834,0.307552 -0.961611,0.735304 -1.269161,1.283257 -0.307552,0.547952 -0.461741,1.165541 -0.461741,1.853589 0,0.688053 0.154189,1.305639 0.461741,1.853594 0.30755,0.547953 0.731155,0.975704 1.269161,1.283254 0.538835,0.307551 1.143159,0.46174 1.812972,0.46174 z m 0,-0.611784 c -0.54298,0 -1.029589,-0.12684 -1.459827,-0.380502 -0.430239,-0.253666 -0.76929,-0.60598 -1.017983,-1.059431 -0.248692,-0.452621 -0.373039,-0.968246 -0.373039,-1.547699 0,-0.579455 0.12436,-1.095078 0.373039,-1.547698 0.248693,-0.452623 0.588575,-0.805766 1.017983,-1.059434 0.430238,-0.253665 0.916847,-0.380497 1.459827,-0.380497 0.542979,0 1.029588,0.12684 1.459828,0.380497 0.430237,0.253668 0.76929,0.606811 1.017983,1.059434 0.248694,0.45262 0.373039,0.969071 0.373039,1.547698 0,0.579453 -0.124333,1.095078 -0.373039,1.547699 -0.248693,0.452621 -0.588575,0.805765 -1.017983,1.059431 -0.43024,0.254496 -0.916849,0.380502 -1.459828,0.380502 z m 14.948933,-6.530676 -2.389941,6.313484 -2.403201,-6.313484 h -0.583598 l -2.416468,6.327578 -2.362584,-6.327578 h -0.651575 l 2.688371,7.087748 h 0.62422 l 2.403201,-6.151007 2.38994,6.151007 h 0.638312 l 2.68837,-7.087748 z m 5.662737,-0.05471 c -0.660695,0 -1.233517,0.140097 -1.71764,0.42112 -0.484123,0.281024 -0.848871,0.669815 -1.093419,1.168028 v -1.534434 h -0.651576 v 7.087748 h 0.678932 v -3.774339 c 0,-0.84224 0.239574,-1.511225 0.719551,-2.009438 0.479979,-0.497385 1.135698,-0.746907 1.96882,-0.746907 0.723697,0 1.2874,0.208072 1.690283,0.62422 0.402881,0.416146 0.604323,1.022956 0.604323,1.819602 v 4.086854 h 0.678932 V 17.94619 c 0,-0.968245 -0.257813,-1.711007 -0.774265,-2.226631 -0.515622,-0.515622 -1.216937,-0.774264 -2.103941,-0.774264 z m 5.675172,7.142462 H 99.53322 V 12.013206 h -0.678932 z m 6.313482,0.05472 c 0.66981,0 1.27413,-0.15419 1.81298,-0.461741 0.53883,-0.307549 0.96161,-0.735301 1.26999,-1.283253 0.30755,-0.547955 0.46174,-1.165541 0.46174,-1.853594 0,-0.688049 -0.15419,-1.305637 -0.46174,-1.853591 -0.30755,-0.547951 -0.73116,-0.974875 -1.26999,-1.283255 -0.53885,-0.30755 -1.14317,-0.46174 -1.81298,-0.46174 -0.66981,0 -1.27413,0.15419 -1.81296,0.46174 -0.53884,0.307552 -0.96163,0.735304 -1.26917,1.283255 -0.30755,0.547954 -0.46174,1.165542 -0.46174,1.853591 0,0.688053 0.15419,1.305639 0.46174,1.853594 0.30754,0.547952 0.73116,0.975704 1.26917,1.283253 0.53883,0.307551 1.14315,0.461741 1.81296,0.461741 z m 0,-0.611784 c -0.54298,0 -1.02958,-0.12684 -1.45982,-0.380502 -0.43024,-0.253666 -0.76929,-0.605982 -1.01799,-1.059431 -0.2487,-0.452621 -0.37304,-0.968246 -0.37304,-1.547699 0,-0.579456 0.12434,-1.095078 0.37304,-1.547698 0.2487,-0.452623 0.58858,-0.805766 1.01799,-1.059434 0.43024,-0.253666 0.91684,-0.380499 1.45982,-0.380499 0.54298,0 1.02959,0.126841 1.45982,0.380499 0.42943,0.253668 0.7693,0.606811 1.018,1.059434 0.24869,0.45262 0.37303,0.969071 0.37303,1.547698 0,0.579453 -0.12434,1.095078 -0.37303,1.547699 -0.2487,0.452621 -0.58857,0.805765 -1.018,1.059431 -0.43023,0.254496 -0.91684,0.380502 -1.45982,0.380502 z m 8.01123,-6.58539 c -0.54298,0 -1.06357,0.08871 -1.56179,0.264443 -0.49821,0.176573 -0.92347,0.423608 -1.27663,0.740275 l 0.33906,0.489098 c 0.29843,-0.271903 0.66318,-0.489098 1.09342,-0.651575 0.42941,-0.162479 0.88037,-0.244548 1.35123,-0.244548 0.68804,0 1.2103,0.172427 1.56843,0.515623 0.35728,0.344025 0.53634,0.846385 0.53634,1.507079 v 0.570337 h -2.43056 c -0.92348,0 -1.59578,0.183202 -2.01606,0.54961 -0.42113,0.366407 -0.63169,0.843897 -0.63169,1.432471 0,0.60681 0.22879,1.095078 0.68557,1.46646 0.45676,0.37138 1.07932,0.557071 1.86685,0.557071 0.60598,0 1.12657,-0.115227 1.56179,-0.346512 0.43522,-0.231284 0.76515,-0.554584 0.99146,-0.970731 v 1.262532 h 0.65157 v -4.493897 c 0,-0.868765 -0.23543,-1.527801 -0.70628,-1.975449 -0.47086,-0.447648 -1.14483,-0.6723 -2.02271,-0.6723 z m -0.3805,6.640101 c -0.62505,0 -1.10917,-0.133464 -1.45319,-0.400394 -0.34403,-0.266931 -0.51562,-0.631681 -0.51562,-1.092591 0,-0.443504 0.15584,-0.791672 0.46837,-1.045341 0.31252,-0.253666 0.81654,-0.3805 1.5137,-0.3805 h 2.41647 v 1.330508 c -0.20807,0.515623 -0.51811,0.909387 -0.93012,1.18129 -0.41117,0.271076 -0.91104,0.407028 -1.49961,0.407028 z m 11.54101,-9.572192 v 4.629835 c -0.29014,-0.533861 -0.68556,-0.950837 -1.18792,-1.249268 -0.50236,-0.298433 -1.07022,-0.448477 -1.70438,-0.448477 -0.66069,0 -1.25838,0.151702 -1.79224,0.455107 -0.53386,0.303406 -0.95249,0.728673 -1.25591,1.276624 -0.3034,0.547955 -0.45511,1.169687 -0.45511,1.866855 0,0.697171 0.15171,1.317245 0.45511,1.860224 0.30342,0.54298 0.72205,0.969073 1.25591,1.276623 0.53386,0.307551 1.13155,0.461741 1.79224,0.461741 0.64245,0 1.21777,-0.149216 1.72428,-0.448477 0.5065,-0.298431 0.90026,-0.723696 1.18128,-1.276623 v 1.670388 h 0.66567 V 12.013202 Z m -2.85168,9.51748 c -0.54298,0 -1.02959,-0.12684 -1.45983,-0.380502 -0.43023,-0.253666 -0.76928,-0.605982 -1.01798,-1.059431 -0.24869,-0.452621 -0.37303,-0.968246 -0.37303,-1.547699 0,-0.579456 0.12433,-1.095079 0.37303,-1.547699 0.2487,-0.452622 0.58858,-0.805765 1.01798,-1.059433 0.43024,-0.253666 0.91685,-0.380499 1.45983,-0.380499 0.54298,0 1.02959,0.126841 1.45983,0.380499 0.42941,0.253668 0.76929,0.606811 1.01798,1.059433 0.2487,0.45262 0.37304,0.969072 0.37304,1.547699 0,0.579453 -0.12434,1.095078 -0.37304,1.547699 -0.24869,0.452621 -0.58857,0.805765 -1.01798,1.059431 -0.43024,0.254495 -0.91602,0.380502 -1.45983,0.380502 z m 12.65515,0.611784 c 0.66982,0 1.27414,-0.15419 1.81297,-0.461741 0.53882,-0.30755 0.96162,-0.735302 1.27001,-1.283253 0.30754,-0.547956 0.46173,-1.165542 0.46173,-1.853594 0,-0.68805 -0.15419,-1.305637 -0.46173,-1.853591 -0.30756,-0.547951 -0.73119,-0.974875 -1.27001,-1.283256 -0.53883,-0.307549 -1.14315,-0.461739 -1.81297,-0.461739 -0.66981,0 -1.27413,0.15419 -1.81296,0.461739 -0.53884,0.307553 -0.96161,0.735305 -1.26917,1.283256 -0.30755,0.547954 -0.46174,1.165541 -0.46174,1.853591 0,0.688052 0.15419,1.305638 0.46174,1.853594 0.30756,0.547951 0.73116,0.975703 1.26917,1.283253 0.53883,0.307551 1.14232,0.461741 1.81296,0.461741 z m 0,-0.611784 c -0.54297,0 -1.0296,-0.12684 -1.45983,-0.380502 -0.43023,-0.253666 -0.76927,-0.605982 -1.01797,-1.059431 -0.24869,-0.452621 -0.37305,-0.968246 -0.37305,-1.547699 0,-0.579456 0.12432,-1.095079 0.37305,-1.547699 0.2487,-0.452622 0.58857,-0.805765 1.01797,-1.059433 0.43023,-0.253666 0.91686,-0.380499 1.45983,-0.380499 0.543,0 1.0296,0.126841 1.45982,0.380499 0.42941,0.253668 0.76929,0.606811 1.01799,1.059433 0.2487,0.45262 0.37305,0.969072 0.37305,1.547699 0,0.579453 -0.12427,1.095078 -0.37305,1.547699 -0.2487,0.452621 -0.58858,0.805765 -1.01799,1.059431 -0.43022,0.254495 -0.91682,0.380502 -1.45982,0.380502 z m 9.11046,-6.58539 c -0.66069,0 -1.23352,0.140097 -1.71766,0.421119 -0.4841,0.281025 -0.84885,0.669815 -1.09341,1.168029 V 15.00002 h -0.65156 v 7.087748 h 0.67892 v -3.774344 c 0,-0.84224 0.23958,-1.511226 0.71953,-2.009439 0.47999,-0.497385 1.13573,-0.746907 1.96886,-0.746907 0.72452,0 1.28737,0.208073 1.69026,0.624221 0.40288,0.416145 0.60434,1.022955 0.60434,1.819601 v 4.086855 h 0.67893 v -4.141567 c 0,-0.968245 -0.25783,-1.711008 -0.77427,-2.226632 -0.51562,-0.515622 -1.21694,-0.774264 -2.10394,-0.774264 z m 12.39649,6.21898 c -0.2901,0.262787 -0.65653,0.393765 -1.10002,0.393765 -0.43439,0 -0.76267,-0.120201 -0.98483,-0.359776 -0.22218,-0.239574 -0.33242,-0.59106 -0.33242,-1.051971 v -4.562687 h 2.25398 v -0.583594 h -2.25398 v -1.5477 h -0.67893 v 1.5477 h -1.30315 v 0.583598 h 1.30315 v 4.629834 c 0,0.606811 0.16744,1.079326 0.50235,1.419208 0.3349,0.339051 0.80992,0.508989 1.42584,0.508989 0.2802,0 0.54963,-0.04311 0.80827,-0.12932 0.25778,-0.08621 0.47332,-0.210561 0.64493,-0.37304 z m 5.63456,-6.21898 c -0.65156,0 -1.21774,0.133466 -1.6969,0.400396 -0.47997,0.266931 -0.84224,0.644943 -1.08596,1.13404 v -4.467369 h -0.67894 v 10.074551 h 0.67894 v -3.77433 c 0,-0.842241 0.23959,-1.511225 0.71956,-2.00944 0.47997,-0.497385 1.13569,-0.746906 1.96881,-0.746906 0.72451,0 1.2874,0.208072 1.69027,0.624219 0.40289,0.416145 0.60434,1.022955 0.60434,1.819603 v 4.086854 h 0.67892 V 17.94536 c 0,-0.968244 -0.25778,-1.711007 -0.77425,-2.226629 -0.51564,-0.514794 -1.21778,-0.773436 -2.10479,-0.773436 z m 11.69021,3.571229 c 0,-0.688048 -0.14754,-1.303149 -0.44098,-1.846958 -0.29429,-0.542978 -0.69717,-0.965758 -1.20865,-1.269164 -0.51148,-0.303405 -1.08844,-0.455107 -1.7309,-0.455107 -0.64245,0 -1.22193,0.15419 -1.73754,0.461739 -0.51563,0.307553 -0.92099,0.735305 -1.21528,1.283256 -0.29428,0.547954 -0.441,1.165541 -0.441,1.853591 0,0.697171 0.15584,1.317245 0.46836,1.860224 0.31252,0.54298 0.74441,0.969073 1.2965,1.276623 0.55211,0.307551 1.18131,0.461741 1.88758,0.461741 0.543,0 1.04784,-0.09948 1.51372,-0.298432 0.46588,-0.198954 0.85302,-0.48412 1.16058,-0.855504 l -0.39377,-0.447648 c -0.26279,0.325788 -0.59105,0.572822 -0.98483,0.740277 -0.39375,0.167452 -0.82151,0.25118 -1.28325,0.25118 -0.56122,0 -1.06607,-0.117707 -1.51372,-0.353145 -0.44848,-0.235428 -0.80328,-0.567849 -1.06607,-0.998088 -0.26278,-0.430236 -0.40287,-0.92099 -0.4211,-1.473088 h 6.09627 z m -3.38053,-2.973537 c 0.49738,0 0.94586,0.113574 1.34459,0.339051 0.39791,0.226311 0.71956,0.538835 0.96411,0.936743 0.24454,0.398739 0.38049,0.85136 0.40701,1.357865 h -5.43144 c 0.0357,-0.506505 0.17408,-0.961613 0.41448,-1.364497 0.23957,-0.402882 0.55872,-0.714576 0.95747,-0.936741 0.39791,-0.221339 0.84555,-0.332421 1.34378,-0.332421 z M 70.475937,46.858415 h 3.155915 L 66.299556,30.616266 h -2.970223 l -7.309085,16.242137 h 3.109491 l 1.600752,-3.758579 h 8.121482 z m -8.724145,-6.125307 3.039855,-7.100183 3.063068,7.100183 z m 20.534574,-6.404672 c -0.850532,0 -1.62811,0.147558 -2.331912,0.441016 -0.7038,0.294288 -1.295689,0.735301 -1.774838,1.323045 v -1.623964 h -2.76132 v 16.892052 h 2.900589 v -6.010077 c 0.974877,1.114144 2.297094,1.670387 3.967481,1.670387 1.20699,0 2.285487,-0.262786 3.237153,-0.789186 0.951665,-0.525569 1.697744,-1.272478 2.239065,-2.239065 0.541322,-0.966587 0.812397,-2.076587 0.812397,-3.329999 0,-1.25341 -0.271075,-2.359266 -0.812397,-3.318392 -0.541321,-0.959126 -1.288228,-1.70106 -2.239065,-2.22746 -0.951666,-0.524741 -2.030163,-0.788357 -3.237153,-0.788357 z m -0.32496,10.209675 c -0.696339,0 -1.322217,-0.158337 -1.879288,-0.475832 -0.557072,-0.316669 -0.998089,-0.769292 -1.32222,-1.357864 -0.324955,-0.587744 -0.487437,-1.268334 -0.487437,-2.04177 0,-0.773434 0.162482,-1.454025 0.487437,-2.04177 0.32496,-0.587743 0.765976,-1.040364 1.32222,-1.357861 0.557071,-0.316671 1.182949,-0.475833 1.879288,-0.475833 1.067723,0 1.94478,0.355631 2.633658,1.067722 0.688052,0.711261 1.032905,1.647176 1.032905,2.807742 0,1.160567 -0.344025,2.096481 -1.032905,2.807743 -0.688048,0.712092 -1.565935,1.067723 -2.633658,1.067723 z M 98.203543,34.328423 c -0.850532,0 -1.628112,0.147558 -2.331911,0.441016 -0.703803,0.294288 -1.295693,0.735301 -1.774839,1.323045 V 34.46852 h -2.76132 v 16.892052 h 2.900587 v -6.010077 c 0.974877,1.114144 2.297094,1.670386 3.967483,1.670386 1.206988,0 2.285487,-0.262785 3.237147,-0.789185 0.95167,-0.525569 1.69775,-1.272478 2.23907,-2.239066 0.54132,-0.966585 0.8124,-2.076585 0.8124,-3.329998 0,-1.25341 -0.27108,-2.359267 -0.8124,-3.318393 -0.54132,-0.959126 -1.28823,-1.701059 -2.23907,-2.227459 -0.95083,-0.524741 -2.030159,-0.788357 -3.237147,-0.788357 z m -0.324131,10.209675 c -0.69634,0 -1.322218,-0.158336 -1.879289,-0.475832 -0.557072,-0.31667 -0.998089,-0.769292 -1.322219,-1.357865 -0.324956,-0.587743 -0.487438,-1.268332 -0.487438,-2.041769 0,-0.773435 0.162482,-1.454024 0.487438,-2.041769 0.324959,-0.587745 0.765975,-1.040366 1.322219,-1.357862 0.557071,-0.316671 1.182949,-0.475832 1.879289,-0.475832 1.067721,0 1.944779,0.35563 2.633658,1.067722 0.68805,0.71126 1.0329,1.647174 1.0329,2.807741 0,1.160567 -0.34402,2.096482 -1.0329,2.807743 -0.688879,0.712092 -1.566767,1.067723 -2.633658,1.067723 z m 21.090818,2.552418 c 1.42335,0 2.62951,-0.217192 3.62015,-0.649918 0.98979,-0.432725 1.72841,-1.013009 2.21584,-1.740022 0.48744,-0.727012 0.73116,-1.539408 0.73116,-2.436361 0,-1.051973 -0.27439,-1.88675 -0.824,-2.505997 -0.54961,-0.618415 -1.2103,-1.079327 -1.98374,-1.380245 -0.77344,-0.301748 -1.76324,-0.591889 -2.97022,-0.870426 -0.88203,-0.216362 -1.57755,-0.409512 -2.0882,-0.580282 -0.51065,-0.16994 -0.93177,-0.402055 -1.26419,-0.696339 -0.33241,-0.293459 -0.49904,-0.673131 -0.49904,-1.136527 0,-0.664842 0.29014,-1.198701 0.87043,-1.600753 0.58028,-0.402054 1.46562,-0.603498 2.65687,-0.603498 0.72701,0 1.47723,0.108599 2.25066,0.32496 0.77345,0.217191 1.51621,0.533861 2.22747,0.951665 l 0.95166,-2.343515 c -0.69634,-0.464228 -1.52365,-0.819858 -2.48279,-1.067722 -0.95912,-0.247036 -1.93399,-0.371383 -2.92379,-0.371383 -1.42336,0 -2.6262,0.217192 -3.60854,0.649919 -0.98233,0.433555 -1.71681,1.017153 -2.20425,1.751625 -0.48743,0.735304 -0.73115,1.551016 -0.73115,2.447969 0,1.067722 0.27439,1.914106 0.824,2.540813 0.54878,0.626706 1.20699,1.086787 1.97214,1.380245 0.76597,0.294287 1.76737,0.587744 3.00504,0.88203 0.88203,0.217193 1.57754,0.410346 2.08819,0.580285 0.51064,0.170769 0.93176,0.4062 1.26418,0.707945 0.33242,0.301748 0.49905,0.684736 0.49905,1.148962 0,0.634167 -0.29844,1.144816 -0.89364,1.531119 -0.59603,0.387132 -1.4963,0.580284 -2.70329,0.580284 -0.97488,0 -1.94561,-0.165796 -2.91219,-0.499043 -0.96659,-0.332422 -1.78314,-0.76183 -2.44797,-1.287401 l -1.04451,2.343516 c 0.68058,0.587745 1.60489,1.059432 2.77293,1.415062 1.16885,0.354803 2.37915,0.533033 3.63174,0.533033 z m 15.91801,-2.970222 c -0.43356,0.340708 -0.97488,0.510649 -1.62398,0.510649 -0.55707,0 -0.98232,-0.158335 -1.27578,-0.475832 -0.29429,-0.316671 -0.44101,-0.777581 -0.44101,-1.380247 v -5.894023 h 3.31839 v -2.320303 h -3.31839 v -2.830957 h -2.9006 v 2.830957 h -2.04176 v 2.320303 h 2.04176 v 5.963657 c 0,1.361179 0.37138,2.398228 1.11414,3.109491 0.74277,0.71126 1.79391,1.067722 3.15592,1.067722 0.54132,0 1.05611,-0.06964 1.54273,-0.208904 0.48744,-0.139267 0.9011,-0.348168 1.24095,-0.626704 z m 8.3536,2.900587 c 1.26832,0 2.40485,-0.270245 3.41124,-0.812396 1.00555,-0.541321 1.79057,-1.295691 2.35512,-2.262277 0.56453,-0.966586 0.8472,-2.060835 0.8472,-3.283576 0,-1.221911 -0.28267,-2.312016 -0.8472,-3.271969 -0.56455,-0.959126 -1.34957,-1.70935 -2.35512,-2.250672 -1.00556,-0.541321 -2.14292,-0.812398 -3.41124,-0.812398 -1.25343,0 -2.3825,0.271077 -3.38804,0.812398 -1.00554,0.541322 -1.79058,1.291546 -2.35511,2.250672 -0.56453,0.959125 -0.84724,2.050058 -0.84724,3.271969 0,1.221911 0.28188,2.31699 0.84724,3.283576 0.56453,0.966586 1.34957,1.720956 2.35511,2.262277 1.00554,0.542151 2.13461,0.812396 3.38804,0.812396 z m 0,-2.482783 c -1.06774,0 -1.94563,-0.355631 -2.63367,-1.067723 -0.68888,-0.711261 -1.0329,-1.647176 -1.0329,-2.807743 0,-1.160567 0.34402,-2.09565 1.0329,-2.807741 0.68804,-0.711263 1.56593,-1.067722 2.63367,-1.067722 1.06771,0 1.94892,0.35563 2.64525,1.067722 0.69635,0.71126 1.04451,1.647174 1.04451,2.807741 0,1.160567 -0.34816,2.096482 -1.04451,2.807743 -0.69633,0.712092 -1.57837,1.067723 -2.64525,1.067723 z m 12.15777,-8.26075 v -1.809656 h -2.76134 v 12.390711 h 2.90058 v -6.010079 c 0,-1.237663 0.31668,-2.185183 0.95168,-2.842562 0.63416,-0.657376 1.51621,-0.98648 2.64527,-0.98648 0.20061,0 0.42527,0.02321 0.67312,0.06963 v -2.761321 c -2.10394,8.29e-4 -3.57372,0.650748 -4.40931,1.949754 z m 18.40076,4.455748 c 0,-1.268335 -0.26692,-2.385795 -0.80079,-3.353209 -0.53384,-0.966589 -1.27661,-1.716811 -2.22743,-2.250671 -0.95166,-0.533862 -2.03017,-0.800793 -3.23718,-0.800793 -1.22189,0 -2.32029,0.271076 -3.29517,0.812397 -0.97487,0.541322 -1.7367,1.29569 -2.28549,2.262278 -0.54962,0.966585 -0.82399,2.053373 -0.82399,3.260363 0,1.221912 0.28184,2.316989 0.8472,3.283576 0.56454,0.966586 1.36535,1.720957 2.40155,2.262278 1.03622,0.541321 2.23492,0.812396 3.59693,0.812396 1.06773,0 2.02602,-0.16994 2.87739,-0.510649 0.85052,-0.339881 1.55433,-0.843068 2.11137,-1.50791 l -1.55432,-1.786444 c -0.88202,0.896954 -2.00362,1.34543 -3.36481,1.34543 -1.06772,0 -1.96052,-0.26693 -2.68009,-0.800791 -0.71953,-0.533862 -1.16387,-1.256728 -1.33379,-2.169433 h 9.7222 c 0.0307,-0.37221 0.0464,-0.658206 0.0464,-0.858818 z m -6.26456,-4.084366 c 0.94337,0 1.73257,0.278535 2.36674,0.835607 0.63416,0.557071 1.013,1.284086 1.13735,2.181037 h -7.03054 c 0.13925,-0.912703 0.5297,-1.643861 1.17133,-2.192643 0.64162,-0.548783 1.42667,-0.824001 2.35512,-0.824001 z"
   id="path962"
   style="stroke-width:0.0828976" />
</svg>
