<?xml version="1.0" encoding="UTF-8" standalone="no"?>
<!-- Generator: Adobe Illustrator 23.0.0, SVG Export Plug-In . SVG Version: 6.00 Build 0)  -->

<svg
   version="1.1"
   id="Layer_1"
   x="0px"
   y="0px"
   viewBox="0 0 204 64"
   xml:space="preserve"
   sodipodi:docname="googleplay_IS.svg"
   width="204pt"
   height="64pt"
   inkscape:version="1.1.1 (c3084ef, 2021-09-22)"
   xmlns:inkscape="http://www.inkscape.org/namespaces/inkscape"
   xmlns:sodipodi="http://sodipodi.sourceforge.net/DTD/sodipodi-0.dtd"
   xmlns="http://www.w3.org/2000/svg"
   xmlns:svg="http://www.w3.org/2000/svg"><defs
   id="defs831" /><sodipodi:namedview
   id="namedview829"
   pagecolor="#505050"
   bordercolor="#ffffff"
   borderopacity="1"
   inkscape:pageshadow="0"
   inkscape:pageopacity="0"
   inkscape:pagecheckerboard="1"
   showgrid="false"
   inkscape:document-units="pt"
   units="pt"
   inkscape:zoom="1.0859061"
   inkscape:cx="465.50987"
   inkscape:cy="151.02595"
   inkscape:window-width="1920"
   inkscape:window-height="942"
   inkscape:window-x="1440"
   inkscape:window-y="25"
   inkscape:window-maximized="1"
   inkscape:current-layer="Layer_1" />
<style
   type="text/css"
   id="style824">
	.st0{fill:#FFC82F;}
</style>
<path
   class="st0"
   d="M 194.26948,62.822 H 9.7310341 C 5.4609765,62.822 2,59.361023 2,55.090966 V 9.7310341 C 2,5.4618055 5.4609765,2 9.7310341,2 H 194.26948 c 4.26922,0 7.73103,3.4609765 7.73103,7.7310341 V 55.090966 c 0,4.269228 -3.46181,7.731034 -7.73103,7.731034 z M 65.419184,22.087756 h 0.746907 l -4.372022,-9.504214 h -0.692195 l -4.372022,9.504214 h 0.746908 l 1.208647,-2.675107 h 5.512694 z m -6.46353,-3.258706 2.484442,-5.485337 2.498536,5.485337 z m 13.361442,-3.829042 -2.851679,6.340841 -2.824322,-6.340841 h -0.719552 l 3.19073,7.087748 h 0.692196 l 3.204822,-7.087748 z m 4.344665,-0.05471 c -0.542979,0 -1.063576,0.08787 -1.561791,0.264444 -0.498215,0.176571 -0.92348,0.423607 -1.276624,0.740276 l 0.339052,0.489096 c 0.298431,-0.271905 0.663181,-0.489096 1.09342,-0.651576 0.430238,-0.163308 0.880373,-0.244548 1.351231,-0.244548 0.688051,0 1.210305,0.172427 1.568423,0.515623 0.357289,0.344026 0.536348,0.846385 0.536348,1.50708 v 0.570335 h -2.430559 c -0.923479,0 -1.59578,0.183204 -2.01607,0.549612 -0.42112,0.366407 -0.63168,0.843898 -0.63168,1.432471 0,0.606811 0.228797,1.095078 0.685563,1.466459 0.456766,0.371382 1.079327,0.557072 1.866855,0.557072 0.605982,0 1.127408,-0.115228 1.561792,-0.346512 0.434383,-0.230455 0.765145,-0.554585 0.991456,-0.970731 v 1.262531 h 0.651575 v -4.493881 c 0,-0.868767 -0.235429,-1.527804 -0.706288,-1.975451 -0.47003,-0.448476 -1.144816,-0.6723 -2.022703,-0.6723 z M 76.28209,21.58457 c -0.624219,0 -1.109171,-0.133465 -1.453195,-0.400396 -0.344025,-0.26693 -0.515624,-0.63168 -0.515624,-1.09342 0,-0.443502 0.155848,-0.791672 0.468372,-1.045339 0.312524,-0.253666 0.816542,-0.3805 1.513711,-0.3805 h 2.417295 v 1.330507 c -0.208073,0.515623 -0.51811,0.909387 -0.930111,1.181292 -0.412831,0.272733 -0.912703,0.407856 -1.500448,0.407856 z m 6.245508,-8.309659 c 0.154191,0 0.285169,-0.05471 0.393764,-0.163309 0.108596,-0.108596 0.163309,-0.239574 0.163309,-0.393764 0,-0.154189 -0.05471,-0.28268 -0.163309,-0.387132 -0.108595,-0.103622 -0.239573,-0.155847 -0.393764,-0.155847 -0.154189,0 -0.285168,0.05388 -0.393763,0.163308 -0.108596,0.108596 -0.163308,0.239574 -0.163308,0.393763 0,0.154191 0.05471,0.282682 0.163308,0.387132 0.108595,0.104452 0.239574,0.155849 0.393763,0.155849 z m -0.33988,8.812847 H 82.86665 V 15.00001 h -0.678932 z m 3.543874,0 h 0.678932 v -10.07538 h -0.678932 z m 5.933814,-7.14246 c -0.54298,0 -1.063577,0.08787 -1.561791,0.264444 -0.498216,0.176571 -0.923481,0.423607 -1.276625,0.740276 l 0.339052,0.489096 c 0.298431,-0.271905 0.663181,-0.489096 1.09342,-0.651576 0.430239,-0.163308 0.880373,-0.244548 1.351231,-0.244548 0.688051,0 1.210305,0.172427 1.568423,0.515623 0.357289,0.344026 0.536349,0.846385 0.536349,1.50708 v 0.570335 h -2.430559 c -0.92348,0 -1.59578,0.183204 -2.016071,0.549612 -0.42112,0.366407 -0.63168,0.843898 -0.63168,1.432471 0,0.606811 0.228797,1.095078 0.685564,1.466459 0.456766,0.371382 1.079326,0.557072 1.866854,0.557072 0.605982,0 1.127408,-0.115228 1.561792,-0.346512 0.434383,-0.230455 0.765145,-0.554585 0.991456,-0.970731 v 1.262531 h 0.651575 v -4.493881 c 0,-0.868767 -0.235429,-1.527804 -0.706287,-1.975451 -0.47086,-0.448476 -1.144817,-0.6723 -2.022703,-0.6723 z m -0.3805,6.639272 c -0.62422,0 -1.109171,-0.133465 -1.453196,-0.400396 -0.344025,-0.26693 -0.515623,-0.63168 -0.515623,-1.09342 0,-0.443502 0.155847,-0.791672 0.468372,-1.045339 0.312524,-0.253666 0.816541,-0.3805 1.513711,-0.3805 h 2.417295 v 1.330507 c -0.208074,0.515623 -0.518111,0.909387 -0.930112,1.181292 -0.412002,0.272733 -0.911874,0.407856 -1.500447,0.407856 z m 9.463594,-6.639272 c -0.62422,0 -1.190409,0.147557 -1.696915,0.441015 -0.507333,0.294287 -0.901097,0.703801 -1.181291,1.228543 v -4.603305 h -0.678931 v 10.07455 h 0.651575 v -1.670388 c 0.280194,0.542979 0.676445,0.966586 1.187923,1.269163 0.511479,0.303406 1.084299,0.455108 1.717639,0.455108 0.66069,0 1.25838,-0.154189 1.79225,-0.46174 0.53386,-0.30755 0.95249,-0.733644 1.2559,-1.276623 0.3034,-0.542979 0.4551,-1.163054 0.4551,-1.860224 0,-0.697169 -0.1517,-1.318901 -0.4551,-1.866855 -0.30341,-0.547953 -0.72204,-0.973218 -1.2559,-1.276623 -0.53387,-0.300919 -1.13156,-0.452621 -1.79225,-0.452621 z m -0.0406,6.585389 c -0.54298,0 -1.029588,-0.126834 -1.459827,-0.3805 -0.430238,-0.253668 -0.76929,-0.605983 -1.017983,-1.059433 -0.248692,-0.452621 -0.37304,-0.968244 -0.37304,-1.547699 0,-0.579454 0.124348,-1.095078 0.37304,-1.547699 0.248693,-0.452621 0.588574,-0.805765 1.017983,-1.059431 0.430239,-0.253667 0.916847,-0.3805 1.459827,-0.3805 0.54298,0 1.03207,0.126833 1.46646,0.3805 0.43439,0.253666 0.77592,0.60681 1.02545,1.059431 0.24869,0.452621 0.37303,0.969074 0.37303,1.547699 0,0.579455 -0.12434,1.095078 -0.37303,1.547699 -0.2487,0.452621 -0.59106,0.805765 -1.02545,1.059433 -0.43439,0.253666 -0.92348,0.3805 -1.46646,0.3805 z m 5.64865,0.557071 h 0.67893 v -10.07538 h -0.67893 z m 9.54483,-3.57123 c 0,-0.688051 -0.14756,-1.30315 -0.44101,-1.84696 -0.29429,-0.542979 -0.69717,-0.966586 -1.20865,-1.269162 -0.51149,-0.303406 -1.08845,-0.455108 -1.73091,-0.455108 -0.64245,0 -1.22191,0.154189 -1.73753,0.46174 -0.51562,0.30755 -0.921,0.735302 -1.21528,1.283255 -0.29429,0.547954 -0.44102,1.165541 -0.44102,1.853591 0,0.69717 0.15585,1.317244 0.46837,1.860224 0.31253,0.542979 0.74443,0.969073 1.29653,1.276623 0.5521,0.307551 1.18129,0.46174 1.88757,0.46174 0.54298,0 1.04783,-0.09948 1.51372,-0.298431 0.46588,-0.198955 0.85301,-0.484123 1.16056,-0.855504 l -0.39376,-0.448477 c -0.26278,0.325788 -0.59106,0.572824 -0.98482,0.740277 -0.39377,0.167453 -0.82152,0.25118 -1.28326,0.25118 -0.56122,0 -1.06606,-0.117716 -1.51371,-0.353144 -0.44847,-0.23543 -0.80328,-0.56785 -1.06606,-0.998088 -0.26279,-0.42941 -0.40289,-0.920993 -0.42113,-1.473091 h 6.0963 z m -3.38057,-2.973538 c 0.49739,0 0.94586,0.11357 1.34461,0.339051 0.39791,0.226311 0.71955,0.538835 0.9641,0.936744 0.24454,0.398737 0.3805,0.851358 0.40702,1.357863 h -5.43146 c 0.0357,-0.506505 0.1741,-0.961613 0.4145,-1.364495 0.23957,-0.402883 0.55873,-0.715407 0.95747,-0.936744 0.39707,-0.221336 0.84555,-0.332419 1.34376,-0.332419 z m 11.74411,6.598652 c 0.66981,0 1.27414,-0.154189 1.81298,-0.46174 0.53883,-0.30755 0.96161,-0.735302 1.26999,-1.283255 0.30755,-0.547954 0.46174,-1.165541 0.46174,-1.853592 0,-0.68805 -0.15419,-1.305637 -0.46174,-1.853591 -0.30755,-0.547953 -0.73116,-0.975705 -1.26999,-1.283255 -0.53884,-0.307551 -1.14317,-0.46174 -1.81298,-0.46174 -0.66981,0 -1.27413,0.154189 -1.81296,0.46174 -0.53884,0.30755 -0.96162,0.735302 -1.26917,1.283255 -0.30755,0.547954 -0.46174,1.165541 -0.46174,1.853591 0,0.688051 0.15419,1.305638 0.46174,1.853592 0.30755,0.547953 0.73116,0.975705 1.26917,1.283255 0.53883,0.30838 1.14315,0.46174 1.81296,0.46174 z m 0,-0.610955 c -0.54298,0 -1.02958,-0.126834 -1.45982,-0.3805 -0.43024,-0.253668 -0.76929,-0.605983 -1.01798,-1.059433 -0.2487,-0.452621 -0.37305,-0.968244 -0.37305,-1.547699 0,-0.579454 0.12435,-1.095078 0.37305,-1.547699 0.24869,-0.452621 0.58857,-0.805765 1.01798,-1.059431 0.43024,-0.253667 0.91684,-0.3805 1.45982,-0.3805 0.54298,0 1.02959,0.126833 1.45984,0.3805 0.4294,0.253666 0.76928,0.60681 1.01798,1.059431 0.24869,0.452621 0.37303,0.969074 0.37303,1.547699 0,0.579455 -0.12434,1.095078 -0.37303,1.547699 -0.2487,0.452621 -0.58858,0.805765 -1.01798,1.059433 -0.43025,0.253666 -0.91686,0.3805 -1.45984,0.3805 z m 9.11128,-6.585389 c -0.66069,0 -1.23352,0.140096 -1.71764,0.42112 -0.48412,0.281023 -0.84887,0.669813 -1.09341,1.168028 V 15.00001 h -0.65158 v 7.087748 h 0.67893 v -3.774329 c 0,-0.84224 0.23958,-1.511224 0.71955,-2.009439 0.47998,-0.497386 1.1357,-0.746907 1.96882,-0.746907 0.72453,0 1.2874,0.208072 1.69029,0.624219 0.40288,0.416146 0.60432,1.022957 0.60432,1.819603 v 4.086853 h 0.67893 v -4.141567 c 0,-0.968245 -0.25781,-1.711008 -0.77426,-2.226631 -0.51563,-0.516452 -1.21694,-0.774264 -2.10395,-0.774264 z m 12.39652,6.218981 c -0.29014,0.262786 -0.65656,0.393764 -1.10006,0.393764 -0.43438,0 -0.76265,-0.120201 -0.98482,-0.359776 -0.22217,-0.239575 -0.33242,-0.591061 -0.33242,-1.051971 v -4.561857 h 2.25399 v -0.5836 h -2.25399 V 13.45314 h -0.67893 v 1.547699 h -1.30315 v 0.5836 h 1.30315 v 4.629833 c 0,0.606811 0.16745,1.079327 0.50236,1.419208 0.33491,0.339051 0.80991,0.508991 1.42584,0.508991 0.28019,0 0.54961,-0.04311 0.80826,-0.12932 0.25781,-0.08621 0.47334,-0.210561 0.64494,-0.37304 z m 5.63455,-6.218981 c -0.65157,0 -1.21776,0.133465 -1.69691,0.400395 -0.47998,0.266931 -0.84225,0.644944 -1.08597,1.13404 V 12.01238 h -0.67893 v 10.07455 h 0.67893 V 18.3126 c 0,-0.84224 0.23958,-1.511224 0.71956,-2.009439 0.47998,-0.497386 1.1357,-0.746907 1.96882,-0.746907 0.72452,0 1.28739,0.208072 1.69027,0.624219 0.4029,0.416146 0.60434,1.022957 0.60434,1.819603 v 4.086854 h 0.67893 v -4.141566 c 0,-0.968245 -0.25781,-1.711008 -0.77427,-2.226631 -0.51646,-0.515623 -1.21777,-0.773435 -2.10477,-0.773435 z m 11.69022,3.57123 c 0,-0.688051 -0.14755,-1.30315 -0.44101,-1.84696 -0.29429,-0.542979 -0.69717,-0.966586 -1.20864,-1.269162 -0.51148,-0.303406 -1.08846,-0.455108 -1.73091,-0.455108 -0.64246,0 -1.22191,0.154189 -1.73753,0.46174 -0.51562,0.30755 -0.92099,0.735302 -1.21529,1.283255 -0.29429,0.547954 -0.44101,1.165541 -0.44101,1.853591 0,0.69717 0.15584,1.317244 0.46837,1.860224 0.31253,0.542979 0.74443,0.969073 1.29652,1.276623 0.5521,0.307551 1.18129,0.46174 1.88758,0.46174 0.54298,0 1.04783,-0.09948 1.51371,-0.298431 0.46589,-0.198955 0.85302,-0.484123 1.16057,-0.855504 l -0.39376,-0.448477 c -0.26279,0.325788 -0.59106,0.572824 -0.98483,0.740277 -0.39377,0.167453 -0.82152,0.25118 -1.28326,0.25118 -0.56121,0 -1.06606,-0.117716 -1.51371,-0.353144 -0.44847,-0.23543 -0.80327,-0.56785 -1.06606,-0.998088 -0.26278,-0.42941 -0.40288,-0.920993 -0.42113,-1.473091 h 6.0963 z m -3.38056,-2.973538 c 0.49738,0 0.94586,0.11357 1.3446,0.339051 0.39791,0.226311 0.71955,0.538835 0.9641,0.936744 0.24455,0.398737 0.3805,0.851358 0.40703,1.357863 h -5.43145 c 0.0356,-0.506505 0.17408,-0.961613 0.41448,-1.364495 0.23958,-0.402883 0.55873,-0.715407 0.95747,-0.936744 0.39708,-0.221336 0.84555,-0.332419 1.34377,-0.332419 z M 67.545508,43.683421 c -0.937572,0.544638 -2.026018,0.816542 -3.265338,0.816542 -1.103368,0 -2.08985,-0.242061 -2.959446,-0.725355 -0.869596,-0.483293 -1.550186,-1.14896 -2.04094,-1.995346 -0.491583,-0.846385 -0.73696,-1.798878 -0.73696,-2.857481 0,-1.088446 0.245377,-2.055861 0.73696,-2.902246 0.490754,-0.846385 1.171344,-1.503764 2.04094,-1.972964 0.868767,-0.468373 1.86271,-0.702972 2.981828,-0.702972 1.70852,0 3.16669,0.605152 4.376167,1.813799 l 1.859394,-1.813799 C 69.797008,32.497214 68.882646,31.854757 67.794201,31.416228 66.705755,30.9777 65.496278,30.75885 64.16577,30.75885 c -1.633083,0 -3.102857,0.351486 -4.410983,1.054458 -1.308124,0.702972 -2.331911,1.674532 -3.073016,2.913852 -0.741105,1.240149 -1.110827,2.638632 -1.110827,4.19545 0,1.557646 0.370551,2.95613 1.110827,4.19545 0.740276,1.240148 1.760747,2.210879 3.061411,2.913851 1.299834,0.702973 2.758833,1.054459 4.376166,1.054459 1.148961,0 2.267251,-0.174086 3.356526,-0.521426 1.088446,-0.347341 2.04094,-0.846386 2.857481,-1.496303 V 38.740235 H 67.54385 v 4.943186 z m 11.836954,3.333315 c 1.23932,0 2.350148,-0.264444 3.333315,-0.79333 0.982336,-0.528888 1.749968,-1.265848 2.302067,-2.210881 0.551269,-0.945033 0.827319,-2.014413 0.827319,-3.208968 0,-1.193726 -0.27605,-2.259789 -0.827319,-3.197361 -0.552099,-0.937573 -1.318902,-1.670389 -2.302067,-2.199275 -0.983167,-0.528887 -2.093995,-0.793331 -3.333315,-0.793331 -1.224398,0 -2.328595,0.264444 -3.310931,0.793331 -0.983167,0.529715 -1.74997,1.262531 -2.302068,2.199275 -0.552099,0.937572 -0.827318,2.003635 -0.827318,3.197361 0,1.194555 0.276048,2.263935 0.827318,3.208968 0.551269,0.945033 1.318901,1.681993 2.302068,2.210881 0.982336,0.528886 2.085704,0.79333 3.310931,0.79333 z m 0,-2.426414 c -1.042852,0 -1.901672,-0.347341 -2.573971,-1.042853 -0.673129,-0.695511 -1.008865,-1.609872 -1.008865,-2.743912 0,-1.134039 0.336565,-2.0484 1.008865,-2.743911 0.672299,-0.695512 1.53029,-1.042853 2.573971,-1.042853 1.042853,0 1.904988,0.34817 2.584749,1.042853 0.68059,0.695511 1.020469,1.609872 1.020469,2.743911 0,1.13404 -0.339879,2.048401 -1.020469,2.743912 -0.68059,0.695512 -1.541896,1.042853 -2.584749,1.042853 z m 14.625631,2.426414 c 1.23932,0 2.350148,-0.264444 3.333314,-0.79333 0.982337,-0.528888 1.749969,-1.265848 2.302068,-2.210881 0.551265,-0.945033 0.827315,-2.014413 0.827315,-3.208968 0,-1.193726 -0.27605,-2.259789 -0.827315,-3.197361 -0.552099,-0.937573 -1.318902,-1.670389 -2.302068,-2.199275 -0.983166,-0.528887 -2.093994,-0.793331 -3.333314,-0.793331 -1.224398,0 -2.328594,0.264444 -3.310932,0.793331 -0.983165,0.529715 -1.749968,1.262531 -2.302067,2.199275 -0.552098,0.937572 -0.827319,2.003635 -0.827319,3.197361 0,1.194555 0.27605,2.263935 0.827319,3.208968 0.55127,0.945033 1.318902,1.681993 2.302067,2.210881 0.983167,0.528886 2.086534,0.79333 3.310932,0.79333 z m 0,-2.426414 c -1.042852,0 -1.901671,-0.347341 -2.573972,-1.042853 -0.673129,-0.695511 -1.008864,-1.609872 -1.008864,-2.743912 0,-1.134039 0.336564,-2.0484 1.008864,-2.743911 0.672301,-0.695512 1.530291,-1.042853 2.573972,-1.042853 1.042852,0 1.904988,0.34817 2.584749,1.042853 0.680589,0.695511 1.02047,1.609872 1.02047,2.743911 0,1.13404 -0.339881,2.048401 -1.02047,2.743912 -0.679761,0.695512 -1.541068,1.042853 -2.584749,1.042853 z m 18.503577,-9.841609 v 1.609873 c -0.48412,-0.589403 -1.08512,-1.027931 -1.80301,-1.315586 -0.7179,-0.286826 -1.51621,-0.431068 -2.39243,-0.431068 -1.14896,0 -2.1885,0.242062 -3.11779,0.725355 -0.92928,0.484122 -1.66292,1.168028 -2.19927,2.052545 -0.53634,0.884518 -0.80493,1.901672 -0.80493,3.049805 0,1.148961 0.26859,2.169431 0.80493,3.06141 0.53635,0.891978 1.26999,1.584174 2.19927,2.074928 0.93012,0.491582 1.96883,0.73696 3.11779,0.73696 0.83146,0 1.59495,-0.135952 2.29046,-0.407857 0.69551,-0.271904 1.28491,-0.6723 1.76903,-1.202015 v 0.634995 c 0,1.24015 -0.31003,2.161971 -0.92928,2.766294 -0.62007,0.604325 -1.59495,0.906901 -2.92546,0.906901 -0.83146,0 -1.65214,-0.132637 -2.46039,-0.39708 -0.80909,-0.264443 -1.47808,-0.615929 -2.00696,-1.054458 l -1.26999,2.131299 c 0.68059,0.559559 1.54189,0.986481 2.58557,1.281597 1.04286,0.295116 2.14623,0.441845 3.31093,0.441845 4.35379,0 6.53068,-2.131299 6.53068,-6.394724 V 34.748713 Z m -3.76438,9.161019 c -1.08844,0 -1.9771,-0.320814 -2.66432,-0.9641 -0.68806,-0.642456 -1.03208,-1.477235 -1.03208,-2.505995 0,-1.01301 0.34402,-1.837012 1.03208,-2.472008 0.68722,-0.634996 1.57588,-0.952494 2.66432,-0.952494 1.07352,0 1.9539,0.317498 2.64195,0.952494 0.68805,0.634996 1.03208,1.458998 1.03208,2.472008 0,1.027931 -0.34403,1.863539 -1.03208,2.505995 -0.68805,0.643286 -1.56843,0.9641 -2.64195,0.9641 z m 10.18149,2.948669 h 2.83428 V 30.031837 h -2.83428 z m 17.93739,-5.986868 c 0,-1.239319 -0.26113,-2.33191 -0.78255,-3.276943 -0.52143,-0.944205 -1.24761,-1.677849 -2.17689,-2.199275 -0.93012,-0.521426 -1.98457,-0.782554 -3.16337,-0.782554 -1.19456,0 -2.26809,0.264444 -3.21975,0.793331 -0.95249,0.529715 -1.69691,1.266675 -2.2341,2.21088 -0.53634,0.945033 -0.80493,2.006952 -0.80493,3.185757 0,1.194554 0.27605,2.263934 0.82732,3.208967 0.5521,0.945033 1.33383,1.681993 2.34683,2.210881 1.01301,0.529715 2.18436,0.79333 3.51486,0.79333 1.04285,0 1.98042,-0.165796 2.81189,-0.499045 0.83147,-0.332418 1.51951,-0.824002 2.06332,-1.473919 l -1.51951,-1.745825 c -0.86213,0.877057 -1.95805,1.315586 -3.28855,1.315586 -1.04285,0 -1.91577,-0.261127 -2.61874,-0.782553 -0.70297,-0.521427 -1.13735,-1.227715 -1.30398,-2.120523 h 9.50173 c 0.0307,-0.362262 0.0464,-0.641627 0.0464,-0.838095 z m -6.12281,-3.991521 c 0.92182,0 1.69276,0.271905 2.31283,0.816542 0.62009,0.544637 0.98981,1.25507 1.11084,2.131298 h -6.87139 c 0.13595,-0.891979 0.51811,-1.605728 1.14482,-2.142904 0.62836,-0.536347 1.396,-0.804936 2.3029,-0.804936 z m 21.90486,-5.89568 h -6.53067 v 15.87324 h 2.94784 v -4.580923 h 3.58283 c 1.37528,0 2.57398,-0.22714 3.59445,-0.68059 1.02047,-0.45345 1.80303,-1.107513 2.34683,-1.961358 0.54464,-0.853846 0.81654,-1.85525 0.81654,-3.00504 0,-1.163883 -0.2719,-2.169431 -0.81654,-3.015816 -0.5438,-0.846385 -1.32636,-1.496302 -2.34683,-1.949752 -1.02047,-0.452622 -2.21917,-0.679761 -3.59445,-0.679761 z m -0.13595,8.798755 h -3.44688 v -6.304366 h 3.44688 c 1.28492,0 2.2598,0.271905 2.92546,0.816542 0.66484,0.543809 0.99809,1.323047 0.99809,2.336056 0,1.013009 -0.33242,1.791418 -0.99809,2.336055 -0.66566,0.54381 -1.64054,0.815713 -2.92546,0.815713 z m 9.79602,7.075314 h 2.83427 V 30.031837 h -2.83427 z m 11.17958,-12.24564 c -0.9981,0 -1.94313,0.128491 -2.83427,0.385474 -0.89198,0.256983 -1.65547,0.627536 -2.29047,1.110829 l 1.11083,2.063322 c 0.45345,-0.378013 1.00887,-0.6723 1.66707,-0.884518 0.65738,-0.211389 1.32636,-0.317498 2.00696,-0.317498 0.99808,0 1.74996,0.22714 2.25647,0.68059 0.5065,0.45345 0.75934,1.103368 0.75934,1.949753 v 0.181545 h -3.12938 c -1.73837,0 -3.0125,0.329104 -3.82075,0.986483 -0.80909,0.657377 -1.2128,1.53029 -1.2128,2.618735 0,0.695512 0.18486,1.318903 0.55541,1.871 0.37056,0.552099 0.8953,0.983167 1.57589,1.292375 0.68059,0.310037 1.47392,0.465056 2.38081,0.465056 0.90691,0 1.682,-0.140098 2.32446,-0.419462 0.64245,-0.279365 1.13735,-0.683906 1.48552,-1.212792 v 1.473919 h 2.67594 v -7.097696 c 0,-1.723442 -0.47252,-3.011671 -1.41755,-3.866346 -0.94586,-0.853846 -2.30953,-1.280769 -4.09348,-1.280769 z m -0.38547,10.340652 c -0.72537,0 -1.29239,-0.150873 -1.70107,-0.45345 -0.40786,-0.302576 -0.61261,-0.710433 -0.61261,-1.224398 0,-1.073525 0.81654,-1.609872 2.4488,-1.609872 h 2.92545 v 1.405944 c -0.22714,0.605152 -0.61593,1.069379 -1.16803,1.394338 -0.55126,0.324959 -1.18211,0.487438 -1.89254,0.487438 z m 17.91417,-10.2047 -3.83236,8.957091 -3.80997,-8.957091 h -2.94785 l 5.28391,12.154452 -0.20393,0.475834 c -0.27191,0.604323 -0.57117,1.035391 -0.89612,1.292374 -0.32497,0.256983 -0.73697,0.385474 -1.23601,0.385474 -0.37802,0 -0.75188,-0.07544 -1.12243,-0.22714 -0.37056,-0.151703 -0.69137,-0.355631 -0.9641,-0.612613 l -1.13405,2.086533 c 0.37801,0.347341 0.86132,0.620075 1.45155,0.816542 0.5894,0.196468 1.18626,0.295116 1.79141,0.295116 1.07353,0 1.98789,-0.268589 2.74391,-0.804936 0.75603,-0.537177 1.39848,-1.462315 1.92737,-2.7779 l 5.66937,-13.084565 h -2.7207 z M 50.124569,31.63425 l -7.619952,-4.396892 -6.267062,6.05816 5.727398,5.536734 8.159616,-4.709415 c 0.449305,-0.258641 0.717892,-0.724526 0.717892,-1.243465 0,-0.519769 -0.268587,-0.984824 -0.717892,-1.245122 z m -8.913155,-5.1438 -8.385925,-4.840393 -18.37675,-9.417172 20.755912,20.063716 z M 14.753803,54.062207 32.85699,44.08962 40.671751,39.57833 35.20548,34.293605 Z M 13.222683,13.044453 13.202793,53.56482 34.171751,33.294689 Z"
   id="path826"
   style="stroke-width:0.0828976" />
</svg>
