<svg width="179pt" height="82pt" clip-rule="evenodd" fill-rule="evenodd" image-rendering="optimizeQuality" shape-rendering="geometricPrecision" text-rendering="geometricPrecision" version="1.1" viewBox="0 0 179 82" xmlns="http://www.w3.org/2000/svg">
  <defs>
    <style type="text/css"><![CDATA[
    .fil1 {fill:white}
    .fil0 {fill:#2A2A2A}
    .fil2 {fill:#FFC82F}
   ]]></style>
  </defs>
  <path class="fil0" d="m45.566 71.133h-9.9322v9.9642h2.2599v-3.8197h7.6723v-2.2607h-7.6723v-1.6233h7.6723zm76.018 7.7038h-7.6721v-1.5593h7.6721v-2.2607h-7.6721v-1.6233h7.6721v-2.2605h-9.9327v9.9642h9.9327zm56.879 0h-7.6724v-5.4433h7.6724v-2.2605h-9.9323v9.9642h9.9323zm-13.669-7.6879v9.9327h2.2599v-9.9327zm-11.698 2.2446v3.884h7.6719v1.5593h-7.6719v2.2604h9.9321v-6.0804h-7.6719v-1.6233h7.6719v-2.2605h-9.9321zm-3.8887-2.2446v7.672h-5.443v-7.672h-2.2608v9.9327h9.9646v-9.9327zm-11.5 2.2603v7.6724h2.2599v-9.9327h-9.9639v9.9327h2.2601v-7.6724h1.6233v7.6724h2.2608v-7.6724zm-27.718-2.2762h-2.2603v3.8522h-5.4116v-3.8522h-2.2608v9.9642h2.2608v-3.8522h5.4116v3.8522h2.2603v-6.112zm-11.554 0h-9.9326v2.2605h3.8364v7.7037h2.2599v-7.7037h3.8363zm-18.332 7.7038h-7.6722v-7.7038h-2.2606v9.9642h9.9328zm-11.576 0h-7.6722v-1.5593h7.6722v-2.2607h-7.6722v-1.6233h7.6722v-2.2605h-9.932v9.9642h9.932zm-11.5 0h-7.6722v-1.5593h7.6722v-2.2607h-7.6722v-1.6233h7.6722v-2.2605h-9.9328v9.9642h9.9328zm-56.4-77.916h123.71l6.1858 7.4227v20.823h41.235l6.1852 7.4224v31.174h-143.05l-6.1852-7.4226v-20.824h-21.895l-6.1856-7.4224v-31.174z"/>
  <path class="fil1" d="m169.32 32.342h-24.918v24.998h24.918v-5.6704h-19.247v-3.9133h19.247v-5.6704h-19.247v-4.0731h19.247zm-118.3 15.414v3.9133h-19.247v5.6704h24.918v-15.254h-19.247v-4.0731h19.247v-5.6703h-24.918v15.414zm33.71 3.9133h-19.247v-3.9133h19.247v-5.6704h-19.247v-4.0731h19.247v-5.6703h-24.918v24.998h24.918zm22.254 5.6197-13.152-16.275h-0.0349v16.326h-5.6703v-24.998h6.1122l13.214 16.32v-16.32h5.6704v24.998h-6.1123v-0.5013zm28.627-9.533v3.9133h-19.247v5.6704h24.918v-15.254h-19.247v-4.0731h19.247v-5.6703h-24.918v15.414z"/>
  <path class="fil2" d="m56.691 3.8885h-24.918v24.998h5.6703v-9.5838h13.577v9.5838h5.6703v-19.327zm-33.848 5.6704v4.0731h-13.577v-4.0731zm5.6703 4.0731v-9.7435h-24.918v24.998h5.6703v-9.5838h4.126l7.616 9.5838h7.5053l-7.616-9.5838h7.616v-2.2762zm22.507 0h-13.577v-4.0731h13.577zm64.908-4.0731v13.657h-13.577v-13.657zm5.6703 13.657v-19.327h-24.918v24.998h24.918zm-27.907-19.327h-5.6703v24.998h5.6703zm-13.852 0h-20.165v24.998h24.918v-19.327zm-0.9175 19.327h-13.577v-13.657h13.577z"/>
</svg>
