<?xml version="1.0" encoding="UTF-8" standalone="no"?>
<!-- Creator: CorelDRAW -->

<svg
   xml:space="preserve"
   width="179pt"
   height="82pt"
   style="clip-rule:evenodd;fill-rule:evenodd;image-rendering:optimizeQuality;shape-rendering:geometricPrecision;text-rendering:geometricPrecision"
   viewBox="0 0 179 82"
   version="1.1"
   id="svg1041"
   sodipodi:docname="radio_sense_new_logo_IS.svg"
   inkscape:version="1.1.1 (c3084ef, 2021-09-22)"
   xmlns:inkscape="http://www.inkscape.org/namespaces/inkscape"
   xmlns:sodipodi="http://sodipodi.sourceforge.net/DTD/sodipodi-0.dtd"
   xmlns="http://www.w3.org/2000/svg"
   xmlns:svg="http://www.w3.org/2000/svg"><sodipodi:namedview
   id="namedview1043"
   pagecolor="#505050"
   bordercolor="#ffffff"
   borderopacity="1"
   inkscape:pageshadow="0"
   inkscape:pageopacity="0"
   inkscape:pagecheckerboard="1"
   inkscape:document-units="pt"
   showgrid="false"
   inkscape:zoom="3.9735658"
   inkscape:cx="119.66582"
   inkscape:cy="71.723991"
   inkscape:window-width="1920"
   inkscape:window-height="942"
   inkscape:window-x="1440"
   inkscape:window-y="25"
   inkscape:window-maximized="1"
   inkscape:current-layer="svg1041"
   units="pt"
   scale-x="1"
   viewbox-height="100" />
 <defs
   id="defs1031">
  <style
   type="text/css"
   id="style1029">
   <![CDATA[
    .fil1 {fill:white}
    .fil0 {fill:#2A2A2A}
    .fil2 {fill:#FFC82F}
   ]]>
  </style>
 </defs>
 <g
   id="Layer_x0020_1"
   inkscape:label="Layer 1"
   inkscape:groupmode="layer">
  <metadata
   id="CorelCorpID_0Corel-Layer" />
  <path
   class="fil0"
   d="m 45.56639,71.132537 h -7.6723 -2.2599 v 2.2605 1.6233 2.2607 3.8197 h 2.2599 v -3.8197 h 7.6723 v -2.2607 h -7.6723 v -1.6233 h 7.6723 z m 76.0181,7.7038 h -7.6721 v -1.5593 h 7.6721 v -2.2607 h -7.6721 v -1.6233 h 7.6721 v -2.2605 h -7.6721 -2.2606 v 2.2605 1.6233 2.2607 1.5593 2.2604 h 2.2606 7.6721 z m 56.8791,0 h -7.6724 v -5.4433 h 7.6724 v -2.2605 h -7.6724 -2.2599 v 2.2605 5.4433 2.2604 h 2.2599 7.6724 z m -13.6689,-7.6879 v 9.9327 h 2.2599 v -9.9327 z m -11.6982,2.2446 v 1.6233 1.4741 0.7866 h 7.6719 v 1.5593 h -7.6719 v 2.2604 h 7.6719 2.2602 v -2.2604 -1.5593 -1.6947 -0.566 h -7.6719 v -1.6233 h 7.6719 v -2.2605 h -7.6719 -2.2602 z m -3.8887,-2.2446 v 7.672 h -5.443 v -7.672 h -2.2608 v 7.672 2.2607 h 2.2608 5.443 2.2608 v -2.2607 -7.672 z m -11.5001,2.2603 v 7.6724 h 2.2599 v -7.6724 -2.2603 h -2.2599 -1.5598 -2.2608 -1.6233 -2.2601 v 2.2603 7.6724 h 2.2601 v -7.6724 h 1.6233 v 7.6724 h 2.2608 v -7.6724 z m -27.7177,-2.2762 h -2.2603 v 3.8522 h -5.4116 v -3.8522 h -2.2608 v 3.8522 2.2598 3.8522 h 2.2608 v -3.8522 h 5.4116 v 3.8522 h 2.2603 v -3.8522 -2.2598 z m -11.5535,0 h -3.8363 -2.2599 -3.8364 v 2.2605 h 3.8364 v 7.7037 h 2.2599 v -7.7037 h 3.8363 z m -18.3325,7.7038 h -7.6722 v -7.7038 h -2.2606 v 7.7038 2.2604 h 2.2606 7.6722 z m -11.5764,0 h -7.6722 v -1.5593 h 7.6722 v -2.2607 h -7.6722 v -1.6233 h 7.6722 v -2.2605 h -7.6722 -2.2598 v 2.2605 1.6233 2.2607 1.5593 2.2604 h 2.2598 7.6722 z m -11.5001,0 h -7.6722 v -1.5593 h 7.6722 v -2.2607 h -7.6722 v -1.6233 h 7.6722 v -2.2605 h -7.6722 -2.2606 v 2.2605 1.6233 2.2607 1.5593 2.2604 h 2.2606 7.6722 z M 0.62738983,0.92053718 H 124.33239 l 6.1858,7.42270002 V 29.166637 h 41.2352 l 6.1852,7.4224 v 31.1738 h -143.046 l -6.1852,-7.4226 v -20.8236 H 6.8127898 l -6.18559997,-7.4224 V 0.92053718 Z"
   id="path1034" />
  <path
   class="fil1"
   d="m 169.32279,32.341537 h -19.2473 -5.6704 v 5.6703 4.0731 5.6704 3.9133 5.6704 h 5.6704 19.2473 v -5.6704 h -19.2473 v -3.9133 h 19.2473 v -5.6704 h -19.2473 v -4.0731 h 19.2473 z m -118.301,15.4138 v 3.9133 h -19.2473 v 5.6704 h 19.2473 5.6704 v -5.6704 -3.9133 -3.965 -1.7054 h -19.2473 v -4.0731 h 19.2473 v -5.6703 h -19.2473 -5.6704 v 5.6703 4.0731 4.4387 1.2317 z m 33.7102,3.9133 h -19.2473 v -3.9133 h 19.2473 v -5.6704 h -19.2473 v -4.0731 h 19.2473 v -5.6703 h -19.2473 -5.6704 v 5.6703 4.0731 5.6704 3.9133 5.6704 h 5.6704 19.2473 z m 22.2536,5.6197 -13.1516,-16.2751 h -0.0349 v 16.3258 h -5.6703 v -16.3258 -8.6717 h 5.6703 0.4419 l 13.2139,16.3197 v -16.3197 h 5.6704 v 16.3258 8.6717 h -5.6704 -0.4419 v -0.5013 z m 28.627,-9.533 v 3.9133 h -19.2473 v 5.6704 h 19.2473 5.6704 v -5.6704 -3.9133 -3.965 -1.7054 h -19.2473 v -4.0731 h 19.2473 v -5.6703 h -19.2473 -5.6704 v 5.6703 4.0731 4.4387 1.2317 z"
   id="path1036" />
  <path
   class="fil2"
   d="m 56.69129,3.8885372 h -5.6703 -13.577 -5.6703 v 5.6704 4.0730998 5.6703 9.5838 h 5.6703 v -9.5838 h 13.577 v 9.5838 h 5.6703 v -9.5838 -5.6703 -4.0730998 z m -33.848,5.6704 V 13.632037 H 9.2662898 V 9.5589372 Z m 5.6703,4.0730998 v -4.0730998 -5.6704 h -5.6703 -13.5770002 -5.6703 v 5.6704 4.0730998 5.6703 9.5838 h 5.6703 v -9.5838 H 13.39229 l 7.616,9.5838 h 7.5053 l -7.616,-9.5838 h 7.616 v -2.2762 z m 22.5074,0 h -13.577 V 9.5589372 h 13.577 z m 64.9084,-4.0730998 V 23.215737 h -13.577 V 9.5589372 Z m 5.6703,13.6567998 v -13.6567998 -5.6704 h -5.6703 -13.577 -5.6703 v 5.6704 13.6567998 5.6704 h 5.6703 13.577 5.6703 z M 93.69289,3.8885372 h -5.6703 V 28.886137 h 5.6703 z m -13.8516,0 h -14.4945 -5.6703 v 5.6704 13.6567998 5.6704 h 5.6703 13.577 5.6703 v -5.6704 -13.6567998 z m -0.9175,19.3271998 h -13.577 V 9.5589372 h 13.577 z"
   id="path1038" />
 </g>
</svg>
