<?xml version="1.0" encoding="UTF-8" standalone="no"?>
<!-- Generator: Adobe Illustrator 23.0.0, SVG Export Plug-In . SVG Version: 6.00 Build 0)  -->

<svg
   version="1.1"
   id="Layer_1"
   x="0px"
   y="0px"
   viewBox="0 0 507 232.00001"
   xml:space="preserve"
   sodipodi:docname="radio_sense_new_logo2_IS.svg"
   inkscape:version="1.1.1 (c3084ef, 2021-09-22)"
   width="507pt"
   height="232pt"
   xmlns:inkscape="http://www.inkscape.org/namespaces/inkscape"
   xmlns:sodipodi="http://sodipodi.sourceforge.net/DTD/sodipodi-0.dtd"
   xmlns="http://www.w3.org/2000/svg"
   xmlns:svg="http://www.w3.org/2000/svg"><defs
   id="defs1228" /><sodipodi:namedview
   id="namedview1226"
   pagecolor="#505050"
   bordercolor="#ffffff"
   borderopacity="1"
   inkscape:pageshadow="0"
   inkscape:pageopacity="0"
   inkscape:pagecheckerboard="1"
   showgrid="false"
   inkscape:zoom="1.6422003"
   inkscape:cx="334.61205"
   inkscape:cy="178.41917"
   inkscape:window-width="1920"
   inkscape:window-height="942"
   inkscape:window-x="1440"
   inkscape:window-y="25"
   inkscape:window-maximized="1"
   inkscape:current-layer="Layer_1"
   units="pt"
   inkscape:document-units="pt" />
<style
   type="text/css"
   id="style1193">
	.st0{fill-rule:evenodd;clip-rule:evenodd;fill:#FFFFFF;}
	.st1{fill-rule:evenodd;clip-rule:evenodd;fill:#2A2A2A;}
	.st2{fill-rule:evenodd;clip-rule:evenodd;fill:#FFC82F;}
</style>
<polygon
   class="st0"
   points="151.6,532.9 151.6,522.1 173.3,522.1 173.3,515.6 151.6,515.6 151.6,511 173.3,511 173.3,504.6 151.6,504.6 145.2,504.6 145.2,511 145.2,515.6 145.2,522.1 145.2,532.9 "
   id="polygon1195"
   transform="translate(-43.442041,-304.09429)" />
<polygon
   class="st0"
   points="388.8,522.1 388.8,515.6 367.1,515.6 367.1,511 388.8,511 388.8,504.6 367.1,504.6 360.7,504.6 360.7,511 360.7,515.6 360.7,522.1 360.7,526.5 360.7,532.9 367.1,532.9 388.8,532.9 388.8,526.5 367.1,526.5 367.1,522.1 "
   id="polygon1197"
   transform="translate(-43.442041,-304.09429)" />
<polygon
   class="st0"
   points="521.9,532.9 528.3,532.9 550,532.9 550,526.5 528.3,526.5 528.3,511 550,511 550,504.6 528.3,504.6 521.9,504.6 521.9,511 521.9,526.5 "
   id="polygon1199"
   transform="translate(-43.442041,-304.09429)" />
<rect
   x="467.85794"
   y="200.60573"
   class="st0"
   width="6.4000001"
   height="28.200001"
   id="rect1201" />
<polygon
   class="st0"
   points="478.1,515.6 478.1,519.8 478.1,522.1 499.9,522.1 499.9,526.5 478.1,526.5 478.1,532.9 499.9,532.9 506.3,532.9 506.3,526.5 506.3,522.1 506.3,517.3 506.3,515.6 484.5,515.6 484.5,511 506.3,511 506.3,504.6 484.5,504.6 478.1,504.6 478.1,511 "
   id="polygon1203"
   transform="translate(-43.442041,-304.09429)" />
<polygon
   class="st0"
   points="473.5,532.8 473.5,526.4 473.5,504.7 467.1,504.7 467.1,526.4 451.7,526.4 451.7,504.7 445.3,504.7 445.3,526.4 445.3,532.8 451.7,532.8 467.1,532.8 "
   id="polygon1205"
   transform="translate(-43.442041,-304.09429)" />
<polygon
   class="st0"
   points="440.9,511.1 440.9,504.7 434.5,504.7 430.1,504.7 423.7,504.7 419.1,504.7 412.7,504.7 412.7,511.1 412.7,532.8 419.1,532.8 419.1,511.1 423.7,511.1 423.7,532.8 430.1,532.8 430.1,511.1 434.5,511.1 434.5,532.8 440.9,532.8 "
   id="polygon1207"
   transform="translate(-43.442041,-304.09429)" />
<polygon
   class="st0"
   points="327.8,504.6 327.8,515.6 327.8,522 327.8,532.9 334.2,532.9 334.2,522 349.5,522 349.5,532.9 355.9,532.9 355.9,522 355.9,515.6 355.9,504.6 349.5,504.6 349.5,515.6 334.2,515.6 334.2,504.6 "
   id="polygon1209"
   transform="translate(-43.442041,-304.09429)" />
<polygon
   class="st0"
   points="312.3,504.6 305.9,504.6 295,504.6 295,511 305.9,511 305.9,532.9 312.3,532.9 312.3,511 323.2,511 323.2,504.6 "
   id="polygon1211"
   transform="translate(-43.442041,-304.09429)" />
<polygon
   class="st0"
   points="243.1,532.9 249.5,532.9 271.2,532.9 271.2,526.5 249.5,526.5 249.5,504.6 243.1,504.6 243.1,526.5 "
   id="polygon1213"
   transform="translate(-43.442041,-304.09429)" />
<polygon
   class="st0"
   points="238.4,522.1 238.4,515.6 216.7,515.6 216.7,511 238.4,511 238.4,504.6 216.7,504.6 210.3,504.6 210.3,511 210.3,515.6 210.3,522.1 210.3,526.5 210.3,532.9 216.7,532.9 238.4,532.9 238.4,526.5 216.7,526.5 216.7,522.1 "
   id="polygon1215"
   transform="translate(-43.442041,-304.09429)" />
<polygon
   class="st0"
   points="205.8,522.1 205.8,515.6 184.1,515.6 184.1,511 205.8,511 205.8,504.6 184.1,504.6 177.7,504.6 177.7,511 177.7,515.6 177.7,522.1 177.7,526.5 177.7,532.9 184.1,532.9 205.8,532.9 205.8,526.5 184.1,526.5 184.1,522.1 "
   id="polygon1217"
   transform="translate(-43.442041,-304.09429)" />
<polygon
   class="st1"
   points="125.5,415 63.5,415 45.9,394 45.9,305.6 396.6,305.6 414.1,326.7 414.1,385.7 531,385.7 548.6,406.7 548.6,495.1 143.1,495.1 125.5,474 "
   id="polygon1219"
   transform="translate(-43.442041,-304.09429)" />
<path
   class="st0"
   d="m 480.65796,90.605711 h -54.6 -16.1 v 16.099999 11.5 16.1 11.1 16.1 h 16.1 54.6 v -16.1 h -54.6 v -11.1 h 54.6 v -16.1 h -54.6 v -11.5 h 54.6 z m -335.3,43.699999 v 11.1 H 90.757959 v 16.1 h 54.600001 16.1 v -16.1 -11.1 -11.2 -4.8 h -54.6 v -11.5 h 54.6 V 90.705711 h -54.6 -16.100001 v 16.099999 11.5 12.6 3.5 z m 95.6,11.1 h -54.6 v -11.1 h 54.6 v -16.1 h -54.6 v -11.5 h 54.6 V 90.605711 h -54.6 -16.1 v 16.099999 11.5 16.1 11.1 16.1 h 16.1 54.6 z m 63,15.9 -37.3,-46.1 h -0.1 v 46.3 h -16 v -46.3 -24.599999 h 16.1 1.3 l 37.5,46.299999 V 90.605711 h 16.1 v 46.299999 24.6 h -16.1 -1.3 v -1.4 z m 81.2,-27 v 11.1 h -54.6 v 16.1 h 54.6 16.1 v -16.1 -11.1 -11.2 -4.8 h -54.6 v -11.5 h 54.6 V 90.705711 h -54.6 -16.1 v 16.099999 11.5 12.6 3.5 z"
   id="path1221" />
<path
   class="st2"
   d="m 161.45796,9.9057112 h -16.1 -38.5 -16.100001 v 16.0999998 11.5 16.1 27.2 h 16.100001 v -27.2 h 38.5 v 27.2 h 16.1 v -27.2 -16.1 -11.5 z M 65.457959,26.005711 v 11.5 h -38.5 v -11.5 z m 16.1,11.5 v -11.5 -16.0999998 h -16.1 -38.5 -16 v 16.0999998 11.5 16.1 27.2 h 16.1 v -27.2 h 11.7 l 21.6,27.2 h 21.2 l -21.6,-27.2 h 21.6 v -6.5 z m 63.800001,0 h -38.5 v -11.5 h 38.5 z m 184,-11.5 v 38.7 h -38.5 v -38.7 z m 16.1,38.7 v -38.7 -16.0999998 h -16.1 -38.5 -16.1 v 16.0999998 38.7 16.1 h 16.1 38.5 16.1 z m -79.1,-54.7999998 h -16.1 V 80.805711 h 16.1 z m -39.3,0 h -41.1 -16.1 v 16.0999998 38.7 16.1 h 16.1 38.5 16.1 v -16.1 -38.7 z m -2.6,54.7999998 h -38.5 v -38.7 h 38.5 z"
   id="path1223" />
</svg>
