<svg id="Audio_speaker" width="75pt" height="75pt" version="1.1" viewBox="0 0 100 100" xmlns="http://www.w3.org/2000/svg">
	<style id="speakera" type="text/css">.st0{fill:#2A2A2A;}
	.st1{fill:url(#SVGID_1_);}
	.st2{fill:url(#SVGID_2_);}
	.st3{fill:url(#SVGID_3_);}
	.st4{fill:url(#SVGID_4_);}
	.st5{fill:url(#SVGID_5_);}
	.st6{fill:url(#SVGID_6_);}
	.st7{fill:url(#SVGID_7_);}
	.st8{fill:url(#SVGID_8_);}</style>
	<circle id="speakerb" class="st0" cx="50" cy="50" r="45.1"/>
	<linearGradient id="SVGID_1_" x1="13.815" x2="86.182" y1="51.001" y2="51.001" gradientTransform="rotate(90 50.5 50.501)" gradientUnits="userSpaceOnUse">
		<stop id="speakerc" stop-color="#858181" offset="0"/>
		<stop id="speakerd" stop-color="#2A2A2A" offset=".2781"/>
		<stop id="speakere" stop-color="#2A2A2A" offset="1"/>
	</linearGradient>
	<circle id="speakerf" class="st1" cx="50" cy="50" r="36.2"/>
	<linearGradient id="SVGID_2_" x1="18.839" x2="81.159" y1="51.001" y2="51.001" gradientTransform="rotate(-90 49.499 50.5)" gradientUnits="userSpaceOnUse">
		<stop id="speakerg" stop-color="#858181" offset="0"/>
		<stop id="speakerh" stop-color="#2A2A2A" offset=".2781"/>
		<stop id="speakeri" stop-color="#2A2A2A" offset="1"/>
	</linearGradient>
	<circle id="speakerj" class="st2" cx="50" cy="50" r="31.2"/>
	<circle id="speakerk" class="st0" cx="50" cy="50" r="25.6"/>
	<radialGradient id="SVGID_3_" cx="49.859" cy="96.24" r="47.062" gradientTransform="matrix(1 0 0 -1 0 100.41)" gradientUnits="userSpaceOnUse">
		<stop id="speakerl" stop-color="#fff" offset="0"/>
		<stop id="speakerm" stop-color="#A7A7A7" offset=".3438"/>
		<stop id="speakern" stop-color="#2A2A2A" offset=".807"/>
	</radialGradient>
	<path id="speakero" class="st3" d="m50 11.2c21.5 0 38.9 17.3 39.1 38.7v-0.3c0-21.6-17.5-39.1-39.1-39.1s-39.1 17.5-39.1 39v0.3c0.2-21.3 17.6-38.6 39.1-38.6z"/>
	<linearGradient id="SVGID_4_" x1="-879.52" x2="-879.52" y1="1175.6" y2="1136.1" gradientTransform="matrix(-.9817 -.1906 -.1906 .9817 -596.88 -1232.9)" gradientUnits="userSpaceOnUse">
		<stop id="speakerp" stop-color="#939393" offset="0"/>
		<stop id="speakerq" stop-color="#2A2A2A" offset=".8694"/>
	</linearGradient>
	<path id="speakerr" class="st4" d="m42.6 88.1c-21-4.1-34.8-24.3-30.9-45.3 0 0.1-0.1 0.2-0.1 0.3-4.1 21.1 9.7 41.6 30.8 45.7s41.6-9.7 45.7-30.8c0-0.1 0-0.2 0.1-0.3-4.3 20.9-24.6 34.5-45.6 30.4z"/>
	<radialGradient id="SVGID_5_" cx="49.375" cy="81.85" r="28.634" gradientTransform="matrix(1 0 0 -1 0 100.41)" gradientUnits="userSpaceOnUse">
		<stop id="speakers" stop-color="#fff" offset="0"/>
		<stop id="speakert" stop-color="#A7A7A7" offset=".3662"/>
		<stop id="speakeru" stop-color="#2A2A2A" offset=".8595"/>
	</radialGradient>
	<path id="speakerv" class="st5" d="m50 14.2c19.9 0 36.1 16.1 36.2 36v-0.2c0-20-16.2-36.2-36.2-36.2s-36.2 16.2-36.2 36.2v0.2c0.1-19.9 16.3-36 36.2-36z"/>
	<radialGradient id="SVGID_6_" cx="41.2" cy="74.651" r="26.449" gradientTransform="matrix(1 0 0 -1 0 100.41)" gradientUnits="userSpaceOnUse">
		<stop id="speakerw" stop-color="#fff" offset="0"/>
		<stop id="speakerx" stop-color="#A7A7A7" offset=".3203"/>
		<stop id="speakery" stop-color="#2A2A2A" offset=".7517"/>
	</radialGradient>
	<path id="speakerz" class="st6" d="m50 16.5c18.4 0 33.3 14.9 33.4 33.3v-0.2c0-18.5-15-33.4-33.4-33.4s-33.4 15-33.4 33.4v0.2c0.1-18.4 15-33.3 33.4-33.3z"/>
	<radialGradient id="SVGID_7_" cx="45.994" cy="33.429" r="22.591" gradientTransform="matrix(.995 0 0 -1 -2.1982 100.41)" gradientUnits="userSpaceOnUse">
		<stop id="speakeraa" stop-color="#fff" offset=".2406"/>
		<stop id="speakerab" stop-color="#A7A7A7" offset=".5085"/>
		<stop id="speakerac" stop-color="#2A2A2A" offset=".8694"/>
	</radialGradient>
	<path id="speakerad" class="st7" d="m50 78.2c-15.6 0-28.3-12.7-28.4-28.4v0.2c0 15.8 12.7 28.5 28.4 28.5s28.4-12.8 28.4-28.5v-0.2c-0.1 15.7-12.8 28.4-28.4 28.4z"/>
	<radialGradient id="SVGID_8_" cx="-875.45" cy="1176.9" r="25.938" gradientTransform="matrix(-.9817 -.1906 -.1906 .9817 -596.88 -1232.9)" gradientUnits="userSpaceOnUse">
		<stop id="speakerae" stop-color="#939393" offset="0"/>
		<stop id="speakeraf" stop-color="#2A2A2A" offset=".8694"/>
	</radialGradient>
	<path id="speakerag" class="st8" d="m43.6 81.3c-17.7-3.4-29.2-20.5-26-38.1 0 0.1 0 0.2-0.1 0.3-3.4 17.8 8.1 35 25.9 38.4s35-8.2 38.4-25.9c0-0.1 0-0.2 0.1-0.3-3.6 17.6-20.7 29-38.3 25.6z"/>
</svg>
